<svg width="25" height="24" viewBox="0 0 25 24" fill="none" xmlns="http://www.w3.org/2000/svg">
<g clip-path="url(#clip0_146_2034)">
<path d="M9.06522 22C9.61617 22 10.0628 21.5523 10.0628 21C10.0628 20.4477 9.61617 20 9.06522 20C8.51426 20 8.06763 20.4477 8.06763 21C8.06763 21.5523 8.51426 22 9.06522 22Z" stroke="#5DBCA3" stroke-width="2" stroke-linecap="round" stroke-linejoin="round"/>
<path d="M20.0386 22C20.5896 22 21.0362 21.5523 21.0362 21C21.0362 20.4477 20.5896 20 20.0386 20C19.4877 20 19.041 20.4477 19.041 21C19.041 21.5523 19.4877 22 20.0386 22Z" stroke="#5DBCA3" stroke-width="2" stroke-linecap="round" stroke-linejoin="round"/>
<path d="M1.08447 1H5.07483L7.74838 14.39C7.8396 14.8504 8.08946 15.264 8.45422 15.5583C8.81897 15.8526 9.27539 16.009 9.74356 16H19.4401C19.9083 16.009 20.3647 15.8526 20.7295 15.5583C21.0942 15.264 21.3441 14.8504 21.4353 14.39L23.0315 6H6.07242" stroke="#5DBCA3" stroke-width="2" stroke-linecap="round" stroke-linejoin="round"/>
</g>
<defs>
<clipPath id="clip0_146_2034">
<rect width="23.9422" height="24" fill="white" transform="translate(0.0869141)"/>
</clipPath>
</defs>
</svg>
