<svg width="17" height="16" viewBox="0 0 17 16" fill="none" xmlns="http://www.w3.org/2000/svg">
<path fill-rule="evenodd" clip-rule="evenodd" d="M3.20375 1.10311C4.34458 0.383884 5.68583 0 7.0579 0V0.605045L7.05794 0C8.89778 0.000110499 10.6622 0.68975 11.9632 1.91723C13.2641 3.14471 13.9951 4.8095 13.9952 6.54541V6.54545C13.9952 7.84002 13.5883 9.10552 12.826 10.1819C12.0638 11.2583 10.9803 12.0973 9.71268 12.5927C8.44506 13.0881 7.0502 13.2177 5.7045 12.9651C4.3588 12.7126 3.12269 12.0892 2.15249 11.1738C1.1823 10.2584 0.521584 9.0921 0.253907 7.82241C-0.0137702 6.55271 0.123611 5.23664 0.648678 4.04062C1.17375 2.84459 2.06292 1.82233 3.20375 1.10311ZM7.0579 1.21009C8.5576 1.21019 9.99585 1.77234 11.0563 2.77289C12.1167 3.77345 12.7126 5.13046 12.7127 6.54545M7.05786 1.21009C5.93947 1.2101 4.84619 1.52301 3.91628 2.10926C2.98636 2.69552 2.26158 3.52879 1.83358 4.5037C1.40559 5.47861 1.2936 6.55137 1.51179 7.58633C1.72998 8.62129 2.26855 9.57196 3.05938 10.3181C3.85021 11.0643 4.85779 11.5724 5.95471 11.7783C7.05163 11.9842 8.18861 11.8785 9.22188 11.4747C10.2552 11.0709 11.1383 10.387 11.7597 9.50962C12.381 8.63224 12.7126 7.60071 12.7127 6.54549" fill="#999999"/>
<path fill-rule="evenodd" clip-rule="evenodd" d="M11.2432 11.0775C11.4686 10.8531 11.834 10.8531 12.0594 11.0775L16.0168 15.0188C16.2422 15.2433 16.2422 15.6073 16.0168 15.8317C15.7914 16.0562 15.426 16.0562 15.2006 15.8317L11.2432 11.8904C11.0178 11.6659 11.0178 11.302 11.2432 11.0775Z" fill="#999999"/>
</svg>
