<svg width="150" height="13" viewBox="0 0 150 13" fill="none" xmlns="http://www.w3.org/2000/svg">
<path d="M2.13326 10.3328C2.13326 10.4005 2.16971 10.4708 2.24263 10.5437C2.31555 10.6114 2.42753 10.6765 2.57857 10.739C2.73482 10.8015 2.93273 10.8536 3.17232 10.8953C3.41711 10.9317 3.70878 10.9526 4.04732 10.9578C3.89107 10.8744 3.73221 10.7885 3.57076 10.7C3.41451 10.6062 3.26346 10.5229 3.11763 10.45C2.9718 10.3718 2.83898 10.3093 2.71919 10.2625C2.5994 10.2104 2.49784 10.1843 2.41451 10.1843C2.22701 10.1843 2.13326 10.2338 2.13326 10.3328ZM9.07857 1.63745C9.15669 1.4812 9.25044 1.34318 9.35982 1.22339C9.46919 1.1036 9.58638 1.00464 9.71138 0.926514C9.83638 0.848389 9.96398 0.791097 10.0942 0.754639C10.2244 0.712972 10.3468 0.692139 10.4614 0.692139C10.628 0.692139 10.7687 0.73641 10.8833 0.824951C10.9978 0.908285 11.0551 1.03328 11.0551 1.19995C11.0551 1.33016 11.0213 1.47078 10.9536 1.62183C10.6619 2.24683 10.365 2.87703 10.0629 3.51245C9.76086 4.14266 9.45617 4.75985 9.14888 5.36401C8.8468 5.96818 8.54992 6.55151 8.25826 7.11401C7.96659 7.67131 7.68534 8.18953 7.41451 8.6687C7.14367 9.14787 6.88846 9.57756 6.64888 9.95776C6.41451 10.338 6.20096 10.6531 6.00826 10.9031C6.46138 10.8718 6.87544 10.8302 7.25044 10.7781C7.62544 10.726 7.98742 10.6661 8.33638 10.5984C8.68534 10.5307 9.0343 10.4578 9.38326 10.3796C9.73742 10.2963 10.1176 10.213 10.5239 10.1296C10.5499 10.1192 10.5786 10.1114 10.6098 10.1062C10.6411 10.101 10.6697 10.0984 10.6958 10.0984C10.8572 10.0984 10.9848 10.1635 11.0786 10.2937C11.1723 10.4187 11.2192 10.5619 11.2192 10.7234C11.2192 10.8223 11.1254 10.9291 10.9379 11.0437C10.7504 11.1531 10.4926 11.2625 10.1645 11.3718C9.84159 11.4812 9.45878 11.588 9.01607 11.6921C8.57857 11.7911 8.10461 11.8796 7.59419 11.9578C7.08378 12.0307 6.54992 12.088 5.99263 12.1296C5.43534 12.1765 4.88065 12.2 4.32857 12.2C3.68794 12.2 3.13586 12.1557 2.67232 12.0671C2.20878 11.9786 1.82596 11.8562 1.52388 11.7C1.22701 11.5437 1.00565 11.3588 0.859818 11.1453C0.719193 10.9317 0.64888 10.7 0.64888 10.45C0.64888 10.2052 0.693151 9.99943 0.781693 9.83276C0.875443 9.66089 1.00044 9.52287 1.15669 9.4187C1.31815 9.31453 1.50565 9.23901 1.71919 9.19214C1.93794 9.14526 2.17232 9.12183 2.42232 9.12183C2.62544 9.12183 2.83638 9.15828 3.05513 9.2312C3.27388 9.30412 3.48742 9.40047 3.69576 9.52026C3.9093 9.63485 4.10982 9.76506 4.29732 9.91089C4.49003 10.0515 4.65669 10.1947 4.79732 10.3406C4.91711 10.0281 5.06034 9.67912 5.22701 9.2937C5.39888 8.90828 5.58378 8.50464 5.78169 8.08276C5.97961 7.65568 6.18794 7.22078 6.40669 6.77808C6.62544 6.33016 6.84419 5.89006 7.06294 5.45776C7.28169 5.02547 7.49523 4.60881 7.70357 4.20776C7.9119 3.80672 8.10461 3.43953 8.28169 3.1062C8.45878 2.77287 8.61503 2.4786 8.75044 2.22339C8.89107 1.96818 9.00044 1.77287 9.07857 1.63745ZM13.7739 7.3562C13.7478 7.35099 13.7244 7.34839 13.7036 7.34839C13.6827 7.34839 13.6593 7.34839 13.6333 7.34839C13.4353 7.34839 13.2504 7.38745 13.0786 7.46558C12.9067 7.5437 12.7478 7.64787 12.602 7.77808C12.4614 7.90308 12.3338 8.04631 12.2192 8.20776C12.1098 8.36922 12.0109 8.53068 11.9223 8.69214C11.8338 8.84839 11.7583 8.99943 11.6958 9.14526C11.6385 9.2911 11.5942 9.41349 11.5629 9.51245C11.7452 9.4187 11.9327 9.31193 12.1254 9.19214C12.3234 9.07235 12.5083 8.95776 12.6801 8.84839C12.852 8.73901 13.0004 8.64006 13.1254 8.55151C13.2557 8.46297 13.3468 8.40308 13.3989 8.37183C13.6333 8.22599 13.7947 8.09058 13.8833 7.96558C13.9718 7.83537 14.0161 7.72339 14.0161 7.62964C14.0161 7.55151 13.99 7.48901 13.9379 7.44214C13.8911 7.39526 13.8364 7.36662 13.7739 7.3562ZM14.0551 6.27808C14.4874 6.27808 14.8103 6.38224 15.0239 6.59058C15.2374 6.79891 15.3442 7.08797 15.3442 7.45776C15.3442 7.67651 15.2869 7.90568 15.1723 8.14526C15.0577 8.38485 14.8598 8.62964 14.5786 8.87964C14.2973 9.12443 13.9197 9.37703 13.4458 9.63745C12.977 9.89266 12.3885 10.1505 11.6801 10.4109C11.7062 10.5619 11.7869 10.6817 11.9223 10.7703C12.0577 10.8536 12.2374 10.8953 12.4614 10.8953C12.701 10.8953 12.9562 10.8614 13.227 10.7937C13.503 10.7208 13.7739 10.6296 14.0395 10.5203C14.3103 10.4109 14.5734 10.2937 14.8286 10.1687C15.0838 10.0385 15.3129 9.9161 15.5161 9.80151C15.7244 9.68693 15.8963 9.58797 16.0317 9.50464C16.1723 9.42131 16.2661 9.36922 16.3129 9.34839C16.3598 9.31714 16.4015 9.29891 16.4379 9.2937C16.4796 9.28849 16.5161 9.28589 16.5473 9.28589C16.6098 9.28589 16.6619 9.30151 16.7036 9.33276C16.7452 9.35881 16.7791 9.39266 16.8051 9.43433C16.8364 9.47078 16.8572 9.51245 16.8676 9.55933C16.878 9.60099 16.8833 9.63745 16.8833 9.6687C16.8833 9.71558 16.878 9.77287 16.8676 9.84058C16.8572 9.90308 16.8182 9.97599 16.7504 10.0593C16.7244 10.0854 16.6359 10.1557 16.4848 10.2703C16.339 10.3848 16.1489 10.5203 15.9145 10.6765C15.6801 10.8328 15.4067 10.9994 15.0942 11.1765C14.7869 11.3484 14.4588 11.5072 14.1098 11.6531C13.7661 11.7989 13.4067 11.9187 13.0317 12.0125C12.6567 12.1114 12.2869 12.1609 11.9223 12.1609C11.6098 12.1609 11.3312 12.101 11.0864 11.9812C10.8468 11.8614 10.6411 11.7 10.4692 11.4968C10.3025 11.2937 10.1749 11.0593 10.0864 10.7937C9.99784 10.5281 9.95357 10.2494 9.95357 9.95776C9.95357 9.73381 9.99784 9.48901 10.0864 9.22339C10.1749 8.95256 10.3025 8.68172 10.4692 8.41089C10.6359 8.14006 10.839 7.87703 11.0786 7.62183C11.3234 7.36141 11.5968 7.13224 11.8989 6.93433C12.201 6.73641 12.5317 6.57756 12.8911 6.45776C13.2557 6.33797 13.6437 6.27808 14.0551 6.27808ZM24.5004 6.87964C24.5317 6.88485 24.5629 6.88745 24.5942 6.88745C24.6307 6.88745 24.6671 6.88745 24.7036 6.88745C25.1567 6.88745 25.5838 6.7911 25.9848 6.59839C26.3911 6.40047 26.7452 6.15047 27.0473 5.84839C27.3494 5.54631 27.5864 5.21037 27.7583 4.84058C27.9353 4.47078 28.0239 4.11141 28.0239 3.76245C28.0239 3.51245 27.977 3.27547 27.8833 3.05151C27.7947 2.82756 27.6515 2.63224 27.4536 2.46558C27.2609 2.29891 27.0109 2.1661 26.7036 2.06714C26.4015 1.96818 26.0395 1.9187 25.6176 1.9187C25.1437 1.9187 24.7348 1.96297 24.3911 2.05151C24.0525 2.14006 23.7583 2.25464 23.5083 2.39526C23.2635 2.53589 23.0551 2.69735 22.8833 2.87964C22.7166 3.06193 22.5708 3.24943 22.4458 3.44214C22.326 3.63485 22.2166 3.82235 22.1176 4.00464C22.0187 4.18693 21.9145 4.34839 21.8051 4.48901C21.701 4.62964 21.5838 4.74422 21.4536 4.83276C21.3234 4.92131 21.1619 4.96558 20.9692 4.96558C20.7088 4.96558 20.5135 4.90047 20.3833 4.77026C20.253 4.63485 20.1879 4.44735 20.1879 4.20776C20.1879 3.98381 20.2478 3.74162 20.3676 3.4812C20.4926 3.22078 20.6671 2.96037 20.8911 2.69995C21.1202 2.43953 21.3989 2.18953 21.727 1.94995C22.0551 1.70516 22.4223 1.49162 22.8286 1.30933C23.24 1.12183 23.6879 0.973389 24.1723 0.864014C24.6567 0.74943 25.1697 0.692139 25.7114 0.692139C26.2426 0.692139 26.7504 0.759847 27.2348 0.895264C27.7244 1.03068 28.1567 1.23381 28.5317 1.50464C28.9067 1.77026 29.2036 2.1062 29.4223 2.51245C29.6463 2.9187 29.7583 3.39266 29.7583 3.93433C29.7583 4.29891 29.6905 4.64787 29.5551 4.9812C29.4249 5.30933 29.2478 5.61922 29.0239 5.91089C28.7999 6.19735 28.5369 6.46297 28.2348 6.70776C27.9379 6.94735 27.6202 7.16089 27.2817 7.34839C26.9432 7.53589 26.5942 7.69474 26.2348 7.82495C25.8807 7.95516 25.5369 8.04891 25.2036 8.1062C25.2504 8.35099 25.326 8.62703 25.4301 8.93433C25.5395 9.23641 25.6697 9.52547 25.8208 9.80151C25.977 10.0723 26.1489 10.3041 26.3364 10.4968C26.5239 10.6895 26.7218 10.7937 26.9301 10.8093C26.9718 10.8145 27.0109 10.8171 27.0473 10.8171C27.0838 10.8171 27.1202 10.8171 27.1567 10.8171C27.5369 10.8171 27.8754 10.7546 28.1723 10.6296C28.4692 10.5046 28.7166 10.3666 28.9145 10.2156C29.1489 10.0437 29.352 9.84318 29.5239 9.61401C29.6853 9.43172 29.8494 9.34058 30.0161 9.34058C30.1202 9.34058 30.2088 9.37703 30.2817 9.44995C30.3546 9.52287 30.3911 9.62183 30.3911 9.74683C30.3911 9.86662 30.352 10.0072 30.2739 10.1687C30.201 10.325 30.0734 10.489 29.8911 10.6609C29.3546 11.1661 28.8286 11.5359 28.3129 11.7703C27.8025 11.9994 27.3182 12.114 26.8598 12.114C26.4848 12.114 26.1385 12.0072 25.8208 11.7937C25.503 11.5802 25.214 11.2911 24.9536 10.9265C24.6932 10.5619 24.4562 10.1375 24.2426 9.65308C24.0291 9.16349 23.839 8.64787 23.6723 8.1062C23.5786 8.31974 23.4822 8.57235 23.3833 8.86401C23.2843 9.15047 23.1775 9.44735 23.0629 9.75464C22.9484 10.0619 22.8286 10.3666 22.7036 10.6687C22.5786 10.9656 22.4405 11.2338 22.2895 11.4734C22.1385 11.7078 21.977 11.8979 21.8051 12.0437C21.6333 12.1895 21.4458 12.2625 21.2426 12.2625C21.076 12.2625 20.9405 12.2364 20.8364 12.1843C20.7322 12.1322 20.6515 12.0671 20.5942 11.989C20.5369 11.9109 20.4952 11.825 20.4692 11.7312C20.4484 11.6375 20.4379 11.5489 20.4379 11.4656C20.4379 11.3458 20.4536 11.2234 20.4848 11.0984C20.5161 10.9734 20.5603 10.8562 20.6176 10.7468L22.9223 6.52808C23.1202 6.17391 23.3182 5.83276 23.5161 5.50464C23.7192 5.17131 23.9145 4.87703 24.102 4.62183C24.2947 4.36662 24.4744 4.16349 24.6411 4.01245C24.8129 3.8562 24.9666 3.77808 25.102 3.77808C25.1385 3.77808 25.1827 3.78589 25.2348 3.80151C25.2869 3.81193 25.3338 3.83537 25.3754 3.87183C25.4171 3.90308 25.4536 3.95256 25.4848 4.02026C25.5161 4.08276 25.5317 4.16349 25.5317 4.26245C25.5317 4.36141 25.503 4.49943 25.4458 4.67651C25.3885 4.8536 25.3129 5.05672 25.2192 5.28589C25.1254 5.51506 25.0161 5.76766 24.8911 6.0437C24.7661 6.31453 24.6359 6.59318 24.5004 6.87964ZM32.5551 7.3562C32.5291 7.35099 32.5057 7.34839 32.4848 7.34839C32.464 7.34839 32.4405 7.34839 32.4145 7.34839C32.2166 7.34839 32.0317 7.38745 31.8598 7.46558C31.6879 7.5437 31.5291 7.64787 31.3833 7.77808C31.2426 7.90308 31.115 8.04631 31.0004 8.20776C30.8911 8.36922 30.7921 8.53068 30.7036 8.69214C30.615 8.84839 30.5395 8.99943 30.477 9.14526C30.4197 9.2911 30.3754 9.41349 30.3442 9.51245C30.5265 9.4187 30.714 9.31193 30.9067 9.19214C31.1046 9.07235 31.2895 8.95776 31.4614 8.84839C31.6333 8.73901 31.7817 8.64006 31.9067 8.55151C32.0369 8.46297 32.128 8.40308 32.1801 8.37183C32.4145 8.22599 32.576 8.09058 32.6645 7.96558C32.753 7.83537 32.7973 7.72339 32.7973 7.62964C32.7973 7.55151 32.7713 7.48901 32.7192 7.44214C32.6723 7.39526 32.6176 7.36662 32.5551 7.3562ZM32.8364 6.27808C33.2687 6.27808 33.5916 6.38224 33.8051 6.59058C34.0187 6.79891 34.1254 7.08797 34.1254 7.45776C34.1254 7.67651 34.0682 7.90568 33.9536 8.14526C33.839 8.38485 33.6411 8.62964 33.3598 8.87964C33.0786 9.12443 32.701 9.37703 32.227 9.63745C31.7583 9.89266 31.1697 10.1505 30.4614 10.4109C30.4874 10.5619 30.5682 10.6817 30.7036 10.7703C30.839 10.8536 31.0187 10.8953 31.2426 10.8953C31.4822 10.8953 31.7374 10.8614 32.0083 10.7937C32.2843 10.7208 32.5551 10.6296 32.8208 10.5203C33.0916 10.4109 33.3546 10.2937 33.6098 10.1687C33.865 10.0385 34.0942 9.9161 34.2973 9.80151C34.5057 9.68693 34.6775 9.58797 34.8129 9.50464C34.9536 9.42131 35.0473 9.36922 35.0942 9.34839C35.1411 9.31714 35.1827 9.29891 35.2192 9.2937C35.2609 9.28849 35.2973 9.28589 35.3286 9.28589C35.3911 9.28589 35.4432 9.30151 35.4848 9.33276C35.5265 9.35881 35.5603 9.39266 35.5864 9.43433C35.6176 9.47078 35.6385 9.51245 35.6489 9.55933C35.6593 9.60099 35.6645 9.63745 35.6645 9.6687C35.6645 9.71558 35.6593 9.77287 35.6489 9.84058C35.6385 9.90308 35.5994 9.97599 35.5317 10.0593C35.5057 10.0854 35.4171 10.1557 35.2661 10.2703C35.1202 10.3848 34.9301 10.5203 34.6958 10.6765C34.4614 10.8328 34.1879 10.9994 33.8754 11.1765C33.5682 11.3484 33.24 11.5072 32.8911 11.6531C32.5473 11.7989 32.1879 11.9187 31.8129 12.0125C31.4379 12.1114 31.0682 12.1609 30.7036 12.1609C30.3911 12.1609 30.1124 12.101 29.8676 11.9812C29.628 11.8614 29.4223 11.7 29.2504 11.4968C29.0838 11.2937 28.9562 11.0593 28.8676 10.7937C28.7791 10.5281 28.7348 10.2494 28.7348 9.95776C28.7348 9.73381 28.7791 9.48901 28.8676 9.22339C28.9562 8.95256 29.0838 8.68172 29.2504 8.41089C29.4171 8.14006 29.6202 7.87703 29.8598 7.62183C30.1046 7.36141 30.378 7.13224 30.6801 6.93433C30.9822 6.73641 31.3129 6.57756 31.6723 6.45776C32.0369 6.33797 32.4249 6.27808 32.8364 6.27808ZM37.0708 7.56714C37.3885 7.73381 37.6723 7.92391 37.9223 8.13745C38.1723 8.35099 38.3833 8.57756 38.5551 8.81714C38.7322 9.05151 38.865 9.2911 38.9536 9.53589C39.0473 9.78068 39.0942 10.0203 39.0942 10.2546C39.0942 10.5515 39.0083 10.8197 38.8364 11.0593C38.6697 11.2937 38.4484 11.4942 38.1723 11.6609C37.9015 11.8223 37.589 11.9447 37.2348 12.0281C36.8859 12.1166 36.5317 12.1609 36.1723 12.1609C35.9015 12.1609 35.6385 12.1296 35.3833 12.0671C35.128 12.0098 34.8937 11.9187 34.6801 11.7937C34.4718 11.6687 34.2921 11.5098 34.1411 11.3171C33.99 11.1192 33.8833 10.8848 33.8208 10.614C33.8103 10.5723 33.8051 10.5385 33.8051 10.5125C33.8051 10.3718 33.8546 10.252 33.9536 10.1531C34.0525 10.0489 34.1619 9.99683 34.2817 9.99683C34.339 9.99683 34.4015 10.0072 34.4692 10.0281C34.5421 10.0489 34.5968 10.0958 34.6333 10.1687C34.701 10.2937 34.7947 10.4057 34.9145 10.5046C35.0395 10.6036 35.1775 10.6895 35.3286 10.7625C35.4796 10.8302 35.6385 10.8848 35.8051 10.9265C35.977 10.963 36.1437 10.9812 36.3051 10.9812C36.4718 10.9812 36.6307 10.9656 36.7817 10.9343C36.9379 10.9031 37.0734 10.8536 37.1879 10.7859C37.3077 10.7182 37.4015 10.6322 37.4692 10.5281C37.5369 10.4239 37.5708 10.2963 37.5708 10.1453C37.5708 9.87964 37.5109 9.63485 37.3911 9.41089C37.2713 9.18693 37.115 8.9812 36.9223 8.7937C36.7348 8.60099 36.5187 8.42391 36.2739 8.26245C36.0343 8.09578 35.7947 7.93693 35.5551 7.78589C35.5291 7.77026 35.49 7.72599 35.4379 7.65308C35.3859 7.57495 35.3598 7.49683 35.3598 7.4187C35.3598 7.3562 35.3754 7.30672 35.4067 7.27026C35.49 7.16089 35.5864 7.04891 35.6958 6.93433C35.8051 6.81974 35.9223 6.71558 36.0473 6.62183C36.1723 6.52287 36.3077 6.44474 36.4536 6.38745C36.5994 6.32495 36.7504 6.2937 36.9067 6.2937C37.0213 6.2937 37.128 6.30933 37.227 6.34058C37.326 6.37183 37.4093 6.41349 37.477 6.46558C37.5447 6.51245 37.5968 6.56714 37.6333 6.62964C37.6749 6.68693 37.6958 6.74162 37.6958 6.7937C37.6958 6.86662 37.6775 6.93693 37.6411 7.00464C37.6046 7.07235 37.5551 7.13745 37.4926 7.19995C37.4353 7.26245 37.3676 7.32495 37.2895 7.38745C37.2166 7.44995 37.1437 7.50985 37.0708 7.56714ZM41.9379 7.62183C41.7452 7.99683 41.5629 8.36401 41.3911 8.72339C41.2192 9.07756 41.0577 9.40568 40.9067 9.70776C40.8442 9.83276 40.7817 9.9786 40.7192 10.1453C40.6619 10.3067 40.6333 10.45 40.6333 10.575C40.6333 10.6479 40.6489 10.7052 40.6801 10.7468C40.7166 10.7885 40.7739 10.8093 40.852 10.8093C40.9614 10.8093 41.0994 10.7781 41.2661 10.7156C41.4327 10.6479 41.6124 10.5619 41.8051 10.4578C41.9978 10.3484 42.201 10.226 42.4145 10.0906C42.628 9.94995 42.8364 9.80672 43.0395 9.66089C43.2478 9.50985 43.4458 9.36141 43.6333 9.21558C43.8208 9.06453 43.9874 8.92651 44.1333 8.80151C44.2166 8.74422 44.2947 8.71558 44.3676 8.71558C44.4562 8.71558 44.5291 8.75464 44.5864 8.83276C44.6437 8.91089 44.6723 9.00985 44.6723 9.12964C44.6723 9.24943 44.6437 9.37183 44.5864 9.49683C44.5291 9.62183 44.4249 9.74422 44.2739 9.86401C43.9353 10.1713 43.5916 10.463 43.2426 10.739C42.8989 11.0151 42.5551 11.2598 42.2114 11.4734C41.8728 11.6817 41.5369 11.8484 41.2036 11.9734C40.8702 12.0984 40.5473 12.1609 40.2348 12.1609C40.0265 12.1609 39.852 12.1322 39.7114 12.075C39.5708 12.0229 39.4562 11.95 39.3676 11.8562C39.2843 11.7572 39.2244 11.6453 39.1879 11.5203C39.1515 11.3901 39.1333 11.252 39.1333 11.1062C39.1333 10.8458 39.1775 10.575 39.2661 10.2937C39.3546 10.0125 39.4536 9.75985 39.5629 9.53589C39.7192 9.21297 39.8728 8.89266 40.0239 8.57495C40.1801 8.25724 40.3312 7.95256 40.477 7.66089H40.1411C39.8494 7.66089 39.6489 7.61401 39.5395 7.52026C39.4301 7.42651 39.3754 7.31974 39.3754 7.19995C39.3754 7.14787 39.3911 7.08537 39.4223 7.01245C39.4588 6.93433 39.5083 6.86401 39.5708 6.80151C39.6385 6.73381 39.7192 6.67651 39.8129 6.62964C39.9067 6.58276 40.0135 6.55933 40.1333 6.55933H40.977L42.6254 3.28589C42.7296 3.08797 42.8572 2.94735 43.0083 2.86401C43.1645 2.77547 43.326 2.7312 43.4926 2.7312C43.6489 2.7312 43.7921 2.77287 43.9223 2.8562C44.0525 2.93953 44.1176 3.07756 44.1176 3.27026C44.1176 3.36922 44.0942 3.47078 44.0473 3.57495C44.0057 3.67391 43.9484 3.7911 43.8754 3.92651C43.8286 4.01506 43.7713 4.12183 43.7036 4.24683C43.6359 4.36662 43.5629 4.49683 43.4848 4.63745C43.4119 4.77287 43.3338 4.9161 43.2504 5.06714C43.1723 5.21818 43.0942 5.36401 43.0161 5.50464C42.839 5.83797 42.6515 6.18953 42.4536 6.55933H45.0004C45.1254 6.55933 45.24 6.56714 45.3442 6.58276C45.4484 6.59318 45.5369 6.61922 45.6098 6.66089C45.6879 6.69735 45.7478 6.74943 45.7895 6.81714C45.8312 6.88485 45.852 6.97599 45.852 7.09058C45.852 7.14787 45.8416 7.20516 45.8208 7.26245C45.8051 7.31974 45.7713 7.37183 45.7192 7.4187C45.6723 7.46558 45.6046 7.50464 45.5161 7.53589C45.4327 7.56714 45.3234 7.58797 45.1879 7.59839L41.9379 7.62183ZM46.727 7.66089C46.4822 7.66089 46.2452 7.72339 46.0161 7.84839C45.7921 7.96818 45.5916 8.12964 45.4145 8.33276C45.2426 8.53068 45.1046 8.75724 45.0004 9.01245C44.8963 9.26245 44.8442 9.52026 44.8442 9.78589C44.8442 9.88485 44.852 9.99422 44.8676 10.114C44.8833 10.2286 44.9145 10.338 44.9614 10.4421C45.0135 10.5411 45.0864 10.6244 45.1801 10.6921C45.2739 10.7598 45.3989 10.7937 45.5551 10.7937C45.7947 10.7937 46.0265 10.7312 46.2504 10.6062C46.4796 10.476 46.6827 10.3093 46.8598 10.1062C47.0369 9.89787 47.1775 9.66349 47.2817 9.40308C47.3859 9.14266 47.4379 8.87964 47.4379 8.61401C47.4379 8.50985 47.4301 8.40308 47.4145 8.2937C47.4041 8.17912 47.3728 8.07495 47.3208 7.9812C47.2739 7.88745 47.2036 7.81193 47.1098 7.75464C47.0161 7.69214 46.8885 7.66089 46.727 7.66089ZM47.1333 6.28589C47.3312 6.28589 47.5421 6.31193 47.7661 6.36401C47.9952 6.4161 48.2062 6.50464 48.3989 6.62964C48.5916 6.75464 48.7504 6.92131 48.8754 7.12964C49.0057 7.33276 49.0708 7.58537 49.0708 7.88745C49.0708 8.0437 49.0499 8.22339 49.0083 8.42651C48.9666 8.62443 48.9041 8.83276 48.8208 9.05151C48.8728 9.11401 48.9327 9.15828 49.0004 9.18433C49.0682 9.21037 49.1411 9.22339 49.2192 9.22339C49.3286 9.22339 49.4484 9.19214 49.5786 9.12964C49.714 9.06714 49.852 8.98641 49.9926 8.88745C50.1333 8.78849 50.2739 8.67651 50.4145 8.55151C50.5551 8.42651 50.6879 8.30151 50.8129 8.17651C50.9379 8.05151 51.0499 7.93433 51.1489 7.82495C51.253 7.71037 51.339 7.61401 51.4067 7.53589C51.4432 7.49943 51.4874 7.4812 51.5395 7.4812C51.6124 7.4812 51.6775 7.52026 51.7348 7.59839C51.7921 7.67131 51.8208 7.77547 51.8208 7.91089C51.8208 8.04631 51.7791 8.20256 51.6958 8.37964C51.6176 8.55672 51.4692 8.74162 51.2504 8.93433C51.1254 9.06974 50.9822 9.22599 50.8208 9.40308C50.6593 9.58016 50.4874 9.74683 50.3051 9.90308C50.1228 10.0593 49.9327 10.1921 49.7348 10.3015C49.5369 10.4109 49.339 10.4656 49.1411 10.4656C49.0057 10.4656 48.8728 10.4447 48.7426 10.4031C48.6176 10.3614 48.49 10.2937 48.3598 10.2C48.1723 10.4916 47.9588 10.7572 47.7192 10.9968C47.4796 11.2364 47.2114 11.4421 46.9145 11.614C46.6228 11.7859 46.3051 11.9187 45.9614 12.0125C45.6228 12.1114 45.2609 12.1609 44.8754 12.1609C44.7296 12.1609 44.5603 12.1322 44.3676 12.075C44.1749 12.0177 43.99 11.9239 43.8129 11.7937C43.6411 11.6583 43.4952 11.4838 43.3754 11.2703C43.2557 11.0567 43.1958 10.7963 43.1958 10.489C43.1958 10.2807 43.2296 10.0307 43.2973 9.73901C43.365 9.44735 43.4666 9.14787 43.602 8.84058C43.7426 8.52808 43.9171 8.22078 44.1254 7.9187C44.339 7.61141 44.5916 7.33797 44.8833 7.09839C45.1749 6.8536 45.5083 6.65828 45.8833 6.51245C46.2583 6.36141 46.6749 6.28589 47.1333 6.28589ZM62.5239 5.51245C62.4614 5.66349 62.4015 5.78328 62.3442 5.87183C62.2869 5.96037 62.2244 6.03068 62.1567 6.08276C62.089 6.12964 62.0109 6.16089 61.9223 6.17651C61.839 6.19214 61.74 6.19995 61.6254 6.19995C61.1359 6.15828 60.714 6.12703 60.3598 6.1062C60.0109 6.08537 59.701 6.07495 59.4301 6.07495C59.1645 6.07495 58.9301 6.08537 58.727 6.1062C58.5291 6.12703 58.3338 6.16349 58.1411 6.21558C58.0629 6.34058 57.9458 6.53849 57.7895 6.80933C57.6333 7.08016 57.4588 7.39006 57.2661 7.73901C57.0786 8.08276 56.8859 8.44995 56.6879 8.84058C56.49 9.2312 56.3077 9.6062 56.1411 9.96558C55.7817 10.7468 55.4588 11.3302 55.1723 11.7156C54.8911 12.101 54.6515 12.2937 54.4536 12.2937C54.214 12.2937 54.0395 12.2494 53.9301 12.1609C53.826 12.0776 53.7739 11.9526 53.7739 11.7859C53.7739 11.588 53.8442 11.3119 53.9848 10.9578C54.1307 10.5984 54.3312 10.1635 54.5864 9.65308C54.6801 9.46558 54.7817 9.26506 54.8911 9.05151C55.0057 8.83797 55.1202 8.62443 55.2348 8.41089C55.3494 8.19735 55.4614 7.98901 55.5708 7.78589C55.6801 7.58276 55.7791 7.40047 55.8676 7.23901C55.9562 7.07235 56.0291 6.93172 56.0864 6.81714C56.1489 6.70256 56.1879 6.62703 56.2036 6.59058C56.2192 6.54891 56.2296 6.52026 56.2348 6.50464C56.2452 6.48901 56.2504 6.4786 56.2504 6.47339C56.2557 6.46297 56.2583 6.45776 56.2583 6.45776C56.2583 6.45256 56.2609 6.43953 56.2661 6.4187H56.1254C55.9275 6.4187 55.7687 6.40308 55.6489 6.37183C55.5291 6.34058 55.4692 6.27287 55.4692 6.1687C55.4692 6.11141 55.4926 6.03849 55.5395 5.94995C55.6489 5.74683 55.7713 5.59318 55.9067 5.48901C56.0421 5.37964 56.1723 5.30151 56.2973 5.25464C56.4275 5.20776 56.5447 5.18433 56.6489 5.18433C56.7583 5.17912 56.8416 5.17651 56.8989 5.17651C57.0395 4.89006 57.1801 4.6036 57.3208 4.31714C57.4614 4.03068 57.602 3.74422 57.7426 3.45776C58.0083 2.93172 58.2765 2.49162 58.5473 2.13745C58.8234 1.78328 59.1228 1.49943 59.4458 1.28589C59.7687 1.07235 60.1254 0.921305 60.5161 0.832764C60.9067 0.739014 61.352 0.692139 61.852 0.692139C62.3103 0.692139 62.6749 0.70516 62.9458 0.731201C63.2218 0.757243 63.4145 0.783285 63.5239 0.809326C63.7322 0.866618 63.878 0.965576 63.9614 1.1062C64.0499 1.24162 64.0942 1.39266 64.0942 1.55933C64.0942 1.68953 64.0708 1.81974 64.0239 1.94995C63.9822 2.08016 63.9223 2.19995 63.8442 2.30933C63.7713 2.41349 63.6853 2.49943 63.5864 2.56714C63.4926 2.63485 63.3963 2.6687 63.2973 2.6687C63.24 2.6687 63.1905 2.65828 63.1489 2.63745C63.0343 2.58537 62.9301 2.5411 62.8364 2.50464C62.7478 2.46297 62.6567 2.43172 62.5629 2.41089C62.4692 2.38485 62.3624 2.36662 62.2426 2.3562C62.128 2.34578 61.9848 2.34058 61.8129 2.34058C61.6359 2.34058 61.4249 2.34578 61.1801 2.3562C60.9405 2.36141 60.6463 2.37183 60.2973 2.38745C60.1567 2.63224 60.0239 2.86141 59.8989 3.07495C59.7791 3.28328 59.6593 3.49162 59.5395 3.69995C59.4249 3.90308 59.3051 4.11141 59.1801 4.32495C59.0603 4.53328 58.9275 4.76245 58.7817 5.01245C58.9744 4.94474 59.1827 4.88485 59.4067 4.83276C59.6359 4.77547 59.8676 4.7286 60.102 4.69214C60.3416 4.65568 60.5812 4.62703 60.8208 4.6062C61.0603 4.58537 61.2895 4.57495 61.5083 4.57495C61.9041 4.57495 62.1879 4.6062 62.3598 4.6687C62.5369 4.7312 62.6254 4.85881 62.6254 5.05151C62.6254 5.09318 62.6228 5.15568 62.6176 5.23901C62.6124 5.31714 62.5812 5.40828 62.5239 5.51245ZM63.8833 7.69995C63.6385 7.69995 63.4015 7.76245 63.1723 7.88745C62.9432 8.01245 62.74 8.17651 62.5629 8.37964C62.3859 8.58276 62.2452 8.81193 62.1411 9.06714C62.0369 9.31714 61.9848 9.56974 61.9848 9.82495C61.9848 9.92912 61.99 10.0385 62.0004 10.1531C62.0161 10.2625 62.0473 10.364 62.0942 10.4578C62.1411 10.5515 62.2062 10.6296 62.2895 10.6921C62.378 10.7546 62.4952 10.7859 62.6411 10.7859C62.7557 10.7859 62.8885 10.7364 63.0395 10.6375C63.1958 10.5333 63.3546 10.4031 63.5161 10.2468C63.6827 10.0854 63.8442 9.91089 64.0004 9.72339C64.1567 9.53068 64.2973 9.34318 64.4223 9.16089C64.5473 8.9786 64.6489 8.81453 64.727 8.6687C64.8051 8.52287 64.8442 8.4161 64.8442 8.34839C64.8442 8.24943 64.8103 8.16089 64.7426 8.08276C64.6749 7.99943 64.5916 7.92912 64.4926 7.87183C64.3937 7.81453 64.2869 7.77287 64.1723 7.74683C64.0629 7.71558 63.9666 7.69995 63.8833 7.69995ZM69.2973 9.71558C69.2036 9.80412 69.0786 9.92651 68.9223 10.0828C68.7661 10.239 68.5864 10.4083 68.3833 10.5906C68.1853 10.7729 67.9718 10.9578 67.7426 11.1453C67.5187 11.3276 67.2869 11.4942 67.0473 11.6453C66.8129 11.7963 66.5812 11.9187 66.352 12.0125C66.1228 12.1114 65.9067 12.1609 65.7036 12.1609C65.5213 12.1609 65.365 12.1218 65.2348 12.0437C65.1046 11.9656 64.9952 11.864 64.9067 11.739C64.8234 11.614 64.7609 11.4734 64.7192 11.3171C64.6775 11.1557 64.6567 10.9916 64.6567 10.825C64.6567 10.7156 64.6645 10.6088 64.6801 10.5046C64.6958 10.3953 64.7218 10.2937 64.7583 10.2C64.5968 10.4187 64.4119 10.6453 64.2036 10.8796C64.0004 11.1088 63.7791 11.3197 63.5395 11.5125C63.3051 11.7 63.0577 11.8536 62.7973 11.9734C62.5421 12.0984 62.2817 12.1609 62.0161 12.1609C61.8807 12.1609 61.7218 12.1322 61.5395 12.075C61.3624 12.0229 61.1932 11.9343 61.0317 11.8093C60.8702 11.6843 60.7348 11.5229 60.6254 11.325C60.5161 11.127 60.4614 10.8848 60.4614 10.5984C60.4614 10.3848 60.4926 10.1296 60.5551 9.83276C60.6228 9.53589 60.7218 9.2286 60.852 8.91089C60.9874 8.58797 61.1567 8.27026 61.3598 7.95776C61.5682 7.64526 61.8129 7.36662 62.0942 7.12183C62.3754 6.87183 62.6958 6.67131 63.0551 6.52026C63.4145 6.36401 63.8155 6.28589 64.2583 6.28589C64.4874 6.28589 64.6879 6.31453 64.8598 6.37183C65.0317 6.42912 65.1775 6.49162 65.2973 6.55933C65.4327 6.64266 65.5525 6.73381 65.6567 6.83276C65.7452 6.78589 65.8364 6.74162 65.9301 6.69995C66.0083 6.66349 66.089 6.63224 66.1723 6.6062C66.2609 6.57495 66.3364 6.55933 66.3989 6.55933C66.5968 6.55933 66.7583 6.61401 66.8833 6.72339C67.0083 6.83276 67.0708 6.95256 67.0708 7.08276C67.0708 7.11922 67.0682 7.14787 67.0629 7.1687C67.0369 7.26766 66.9952 7.39266 66.9379 7.5437C66.8859 7.69474 66.826 7.86401 66.7583 8.05151C66.6905 8.23381 66.6202 8.42651 66.5473 8.62964C66.4796 8.82756 66.4171 9.02287 66.3598 9.21558C66.3025 9.40828 66.2557 9.59058 66.2192 9.76245C66.1827 9.92912 66.1645 10.0723 66.1645 10.1921C66.1645 10.3484 66.1905 10.4786 66.2426 10.5828C66.2947 10.6817 66.3833 10.7312 66.5083 10.7312C66.5864 10.7312 66.6775 10.7078 66.7817 10.6609C66.8911 10.6088 67.0083 10.5411 67.1333 10.4578C67.2583 10.3744 67.3859 10.2807 67.5161 10.1765C67.6515 10.0671 67.7817 9.95776 67.9067 9.84839C68.1984 9.58797 68.5083 9.2911 68.8364 8.95776C68.9197 8.89006 69.0004 8.8562 69.0786 8.8562C69.1827 8.8562 69.2687 8.90828 69.3364 9.01245C69.4093 9.11141 69.4458 9.22339 69.4458 9.34839C69.4458 9.49422 69.3963 9.61662 69.2973 9.71558ZM72.8911 7.00464C72.8911 7.1661 72.8728 7.34578 72.8364 7.5437C72.7999 7.73641 72.74 7.9187 72.6567 8.09058C72.5734 8.26245 72.4666 8.40568 72.3364 8.52026C72.2062 8.63485 72.0447 8.69214 71.852 8.69214C71.7478 8.69214 71.6801 8.67651 71.6489 8.64526C71.6228 8.61401 71.6098 8.55933 71.6098 8.4812C71.6098 8.43433 71.6098 8.36662 71.6098 8.27808C71.615 8.18433 71.6176 8.09578 71.6176 8.01245C71.6176 7.9187 71.6046 7.84058 71.5786 7.77808C71.5525 7.71037 71.4874 7.67651 71.3833 7.67651C71.2635 7.67651 71.128 7.72339 70.977 7.81714C70.8312 7.90568 70.6827 8.02287 70.5317 8.1687C70.3859 8.31453 70.2426 8.4812 70.102 8.6687C69.9614 8.85099 69.8338 9.03849 69.7192 9.2312C69.6098 9.4187 69.5213 9.60099 69.4536 9.77808C69.3911 9.95516 69.3598 10.1062 69.3598 10.2312C69.3598 10.4135 69.4223 10.5567 69.5473 10.6609C69.6775 10.7651 69.852 10.8171 70.0708 10.8171C70.3051 10.8171 70.5551 10.7781 70.8208 10.7C71.0864 10.6218 71.3494 10.5229 71.6098 10.4031C71.8754 10.2833 72.1307 10.1531 72.3754 10.0125C72.6202 9.87183 72.8416 9.73901 73.0395 9.61401C73.2426 9.48381 73.4119 9.37443 73.5473 9.28589C73.6827 9.19214 73.7713 9.13485 73.8129 9.11401C73.8963 9.07235 73.9744 9.05151 74.0473 9.05151C74.1098 9.05151 74.1619 9.06714 74.2036 9.09839C74.2504 9.12443 74.2869 9.15828 74.3129 9.19995C74.339 9.23641 74.3572 9.27808 74.3676 9.32495C74.378 9.36662 74.3833 9.40308 74.3833 9.43433C74.3833 9.4812 74.378 9.53849 74.3676 9.6062C74.3572 9.6687 74.3182 9.74162 74.2504 9.82495C74.2244 9.8562 74.1385 9.93693 73.9926 10.0671C73.852 10.1921 73.6671 10.3406 73.4379 10.5125C73.214 10.6843 72.9536 10.8692 72.6567 11.0671C72.365 11.2598 72.0499 11.4369 71.7114 11.5984C71.378 11.7598 71.0317 11.8927 70.6723 11.9968C70.3129 12.1062 69.9588 12.1609 69.6098 12.1609C69.3442 12.1609 69.1072 12.1192 68.8989 12.0359C68.6958 11.9526 68.5239 11.8406 68.3833 11.7C68.2426 11.5541 68.1359 11.3848 68.0629 11.1921C67.99 10.9994 67.9536 10.7963 67.9536 10.5828C67.9536 10.3484 68.0083 10.0802 68.1176 9.77808C68.227 9.47078 68.378 9.15828 68.5708 8.84058C68.7635 8.52287 68.99 8.21037 69.2504 7.90308C69.5109 7.59578 69.7921 7.32235 70.0942 7.08276C70.4015 6.84318 70.7192 6.65047 71.0473 6.50464C71.3807 6.35881 71.7166 6.28589 72.0551 6.28589C72.1697 6.28589 72.2765 6.29891 72.3754 6.32495C72.4796 6.35099 72.5682 6.39266 72.6411 6.44995C72.7192 6.50203 72.7791 6.57495 72.8208 6.6687C72.8676 6.76245 72.8911 6.87443 72.8911 7.00464ZM75.4145 5.20776C75.4145 5.08797 75.4353 4.96558 75.477 4.84058C75.5239 4.71037 75.5916 4.59318 75.6801 4.48901C75.7687 4.38485 75.878 4.29891 76.0083 4.2312C76.1437 4.16349 76.3025 4.12964 76.4848 4.12964C76.7869 4.12964 76.9978 4.18953 77.1176 4.30933C77.2374 4.42391 77.2973 4.56974 77.2973 4.74683C77.2973 4.84578 77.2765 4.95516 77.2348 5.07495C77.1984 5.19474 77.1411 5.30672 77.0629 5.41089C76.9848 5.50985 76.8833 5.59318 76.7583 5.66089C76.6333 5.7286 76.4848 5.76245 76.3129 5.76245C75.99 5.76245 75.7635 5.71297 75.6333 5.61401C75.503 5.50985 75.4301 5.37443 75.4145 5.20776ZM74.5551 6.96558C74.6437 6.81974 74.7452 6.71558 74.8598 6.65308C74.9744 6.59058 75.0916 6.55933 75.2114 6.55933C75.4093 6.55933 75.5786 6.62443 75.7192 6.75464C75.865 6.87964 75.9379 7.0411 75.9379 7.23901C75.9327 7.28589 75.9249 7.33276 75.9145 7.37964C75.9093 7.42651 75.8937 7.47339 75.8676 7.52026C75.7947 7.65568 75.7348 7.77026 75.6879 7.86401C75.6411 7.95776 75.5968 8.04631 75.5551 8.12964C75.5187 8.20776 75.4822 8.28589 75.4458 8.36401C75.4093 8.44214 75.365 8.53589 75.3129 8.64526C75.2504 8.77547 75.1801 8.9187 75.102 9.07495C75.0239 9.22599 74.9484 9.38224 74.8754 9.5437C74.8077 9.70516 74.7478 9.86401 74.6958 10.0203C74.6489 10.1765 74.6254 10.3197 74.6254 10.45C74.6254 10.5906 74.6593 10.6843 74.727 10.7312C74.7999 10.7729 74.9015 10.7937 75.0317 10.7937C75.1775 10.7937 75.3286 10.7625 75.4848 10.7C75.6463 10.6375 75.8077 10.5567 75.9692 10.4578C76.1307 10.3588 76.2895 10.2468 76.4458 10.1218C76.602 9.99162 76.7478 9.86141 76.8833 9.7312C77.0239 9.60099 77.1515 9.47599 77.2661 9.3562C77.3859 9.23641 77.4848 9.12964 77.5629 9.03589C77.6671 8.93693 77.7713 8.88745 77.8754 8.88745C77.9692 8.88745 78.0447 8.92912 78.102 9.01245C78.1645 9.09578 78.1958 9.20256 78.1958 9.33276C78.1958 9.45256 78.1645 9.58016 78.102 9.71558C78.0447 9.85099 77.9484 9.9786 77.8129 10.0984C77.5473 10.3692 77.2765 10.6296 77.0004 10.8796C76.7244 11.1244 76.4405 11.3432 76.1489 11.5359C75.8624 11.7234 75.5734 11.8744 75.2817 11.989C74.99 12.1036 74.6958 12.1609 74.3989 12.1609C73.977 12.1609 73.6437 12.0541 73.3989 11.8406C73.1593 11.6218 73.0395 11.2833 73.0395 10.825C73.0395 10.5854 73.0734 10.351 73.1411 10.1218C73.2088 9.89266 73.2895 9.67131 73.3833 9.45776C73.477 9.23901 73.576 9.03068 73.6801 8.83276C73.7843 8.62964 73.8728 8.43693 73.9458 8.25464C73.9718 8.18693 74.0161 8.08276 74.0786 7.94214C74.1463 7.80151 74.2166 7.65828 74.2895 7.51245C74.3728 7.34058 74.4614 7.15828 74.5551 6.96558ZM78.5942 9.70776C78.5369 9.82756 78.4796 9.96818 78.4223 10.1296C78.3702 10.2859 78.3442 10.4265 78.3442 10.5515C78.3442 10.6296 78.3598 10.6921 78.3911 10.739C78.4223 10.7859 78.4822 10.8093 78.5708 10.8093C78.6801 10.8093 78.8155 10.7781 78.977 10.7156C79.1437 10.6479 79.3208 10.5619 79.5083 10.4578C79.701 10.3484 79.8989 10.226 80.102 10.0906C80.3103 9.94995 80.5161 9.80672 80.7192 9.66089C80.9223 9.50985 81.115 9.36141 81.2973 9.21558C81.4848 9.06453 81.6515 8.92651 81.7973 8.80151C81.839 8.76506 81.8885 8.73901 81.9458 8.72339C82.003 8.70776 82.0525 8.69995 82.0942 8.69995C82.1984 8.69995 82.2843 8.73641 82.352 8.80933C82.4197 8.88224 82.4536 8.9786 82.4536 9.09839C82.4536 9.20776 82.4171 9.33016 82.3442 9.46558C82.2713 9.60099 82.1437 9.73381 81.9614 9.86401C81.628 10.1713 81.2921 10.463 80.9536 10.739C80.615 11.0151 80.2765 11.2598 79.9379 11.4734C79.6046 11.6817 79.2713 11.8484 78.9379 11.9734C78.6098 12.0984 78.2895 12.1609 77.977 12.1609C77.7635 12.1609 77.5838 12.1322 77.4379 12.075C77.2973 12.0177 77.1827 11.9395 77.0942 11.8406C77.0109 11.7416 76.951 11.6244 76.9145 11.489C76.878 11.3536 76.8598 11.2104 76.8598 11.0593C76.8598 10.8041 76.8963 10.5437 76.9692 10.2781C77.0473 10.0072 77.1385 9.75985 77.2426 9.53589C77.4249 9.12964 77.6098 8.72599 77.7973 8.32495C77.9848 7.92391 78.1567 7.55672 78.3129 7.22339L80.6801 2.18433C80.7739 1.9812 80.8989 1.83797 81.0551 1.75464C81.2166 1.67131 81.378 1.62964 81.5395 1.62964C81.701 1.62964 81.8468 1.67391 81.977 1.76245C82.1124 1.85099 82.1801 1.99422 82.1801 2.19214C82.1801 2.28589 82.1567 2.38485 82.1098 2.48901C82.0682 2.59318 82.0135 2.70516 81.9458 2.82495C81.8155 3.06974 81.6593 3.36922 81.477 3.72339C81.2999 4.07756 81.1072 4.46297 80.8989 4.87964C80.6958 5.29631 80.4848 5.7312 80.2661 6.18433C80.0525 6.63224 79.8416 7.06974 79.6333 7.49683C79.4301 7.92391 79.2374 8.33016 79.0551 8.71558C78.878 9.09578 78.7244 9.42651 78.5942 9.70776ZM84.6333 7.3562C84.6072 7.35099 84.5838 7.34839 84.5629 7.34839C84.5421 7.34839 84.5187 7.34839 84.4926 7.34839C84.2947 7.34839 84.1098 7.38745 83.9379 7.46558C83.7661 7.5437 83.6072 7.64787 83.4614 7.77808C83.3208 7.90308 83.1932 8.04631 83.0786 8.20776C82.9692 8.36922 82.8702 8.53068 82.7817 8.69214C82.6932 8.84839 82.6176 8.99943 82.5551 9.14526C82.4978 9.2911 82.4536 9.41349 82.4223 9.51245C82.6046 9.4187 82.7921 9.31193 82.9848 9.19214C83.1827 9.07235 83.3676 8.95776 83.5395 8.84839C83.7114 8.73901 83.8598 8.64006 83.9848 8.55151C84.115 8.46297 84.2062 8.40308 84.2583 8.37183C84.4926 8.22599 84.6541 8.09058 84.7426 7.96558C84.8312 7.83537 84.8754 7.72339 84.8754 7.62964C84.8754 7.55151 84.8494 7.48901 84.7973 7.44214C84.7504 7.39526 84.6958 7.36662 84.6333 7.3562ZM84.9145 6.27808C85.3468 6.27808 85.6697 6.38224 85.8833 6.59058C86.0968 6.79891 86.2036 7.08797 86.2036 7.45776C86.2036 7.67651 86.1463 7.90568 86.0317 8.14526C85.9171 8.38485 85.7192 8.62964 85.4379 8.87964C85.1567 9.12443 84.7791 9.37703 84.3051 9.63745C83.8364 9.89266 83.2478 10.1505 82.5395 10.4109C82.5655 10.5619 82.6463 10.6817 82.7817 10.7703C82.9171 10.8536 83.0968 10.8953 83.3208 10.8953C83.5603 10.8953 83.8155 10.8614 84.0864 10.7937C84.3624 10.7208 84.6333 10.6296 84.8989 10.5203C85.1697 10.4109 85.4327 10.2937 85.6879 10.1687C85.9432 10.0385 86.1723 9.9161 86.3754 9.80151C86.5838 9.68693 86.7557 9.58797 86.8911 9.50464C87.0317 9.42131 87.1254 9.36922 87.1723 9.34839C87.2192 9.31714 87.2609 9.29891 87.2973 9.2937C87.339 9.28849 87.3754 9.28589 87.4067 9.28589C87.4692 9.28589 87.5213 9.30151 87.5629 9.33276C87.6046 9.35881 87.6385 9.39266 87.6645 9.43433C87.6958 9.47078 87.7166 9.51245 87.727 9.55933C87.7374 9.60099 87.7426 9.63745 87.7426 9.6687C87.7426 9.71558 87.7374 9.77287 87.727 9.84058C87.7166 9.90308 87.6775 9.97599 87.6098 10.0593C87.5838 10.0854 87.4952 10.1557 87.3442 10.2703C87.1984 10.3848 87.0083 10.5203 86.7739 10.6765C86.5395 10.8328 86.2661 10.9994 85.9536 11.1765C85.6463 11.3484 85.3182 11.5072 84.9692 11.6531C84.6254 11.7989 84.2661 11.9187 83.8911 12.0125C83.5161 12.1114 83.1463 12.1609 82.7817 12.1609C82.4692 12.1609 82.1905 12.101 81.9458 11.9812C81.7062 11.8614 81.5004 11.7 81.3286 11.4968C81.1619 11.2937 81.0343 11.0593 80.9458 10.7937C80.8572 10.5281 80.8129 10.2494 80.8129 9.95776C80.8129 9.73381 80.8572 9.48901 80.9458 9.22339C81.0343 8.95256 81.1619 8.68172 81.3286 8.41089C81.4952 8.14006 81.6984 7.87703 81.9379 7.62183C82.1827 7.36141 82.4562 7.13224 82.7583 6.93433C83.0603 6.73641 83.3911 6.57756 83.7504 6.45776C84.115 6.33797 84.503 6.27808 84.9145 6.27808ZM93.9301 7.69995C93.6853 7.69995 93.4484 7.76245 93.2192 7.88745C92.99 8.01245 92.7869 8.17651 92.6098 8.37964C92.4327 8.58276 92.2921 8.81193 92.1879 9.06714C92.0838 9.31714 92.0317 9.56974 92.0317 9.82495C92.0317 9.92912 92.0369 10.0385 92.0473 10.1531C92.0629 10.2625 92.0942 10.364 92.1411 10.4578C92.1879 10.5515 92.253 10.6296 92.3364 10.6921C92.4249 10.7546 92.5421 10.7859 92.6879 10.7859C92.8025 10.7859 92.9353 10.7364 93.0864 10.6375C93.2426 10.5333 93.4015 10.4031 93.5629 10.2468C93.7296 10.0854 93.8911 9.91089 94.0473 9.72339C94.2036 9.53068 94.3442 9.34318 94.4692 9.16089C94.5942 8.9786 94.6958 8.81453 94.7739 8.6687C94.852 8.52287 94.8911 8.4161 94.8911 8.34839C94.8911 8.24943 94.8572 8.16089 94.7895 8.08276C94.7218 7.99943 94.6385 7.92912 94.5395 7.87183C94.4405 7.81453 94.3338 7.77287 94.2192 7.74683C94.1098 7.71558 94.0135 7.69995 93.9301 7.69995ZM99.3442 9.71558C99.2504 9.80412 99.1254 9.92651 98.9692 10.0828C98.8129 10.239 98.6333 10.4083 98.4301 10.5906C98.2322 10.7729 98.0187 10.9578 97.7895 11.1453C97.5655 11.3276 97.3338 11.4942 97.0942 11.6453C96.8598 11.7963 96.628 11.9187 96.3989 12.0125C96.1697 12.1114 95.9536 12.1609 95.7504 12.1609C95.5682 12.1609 95.4119 12.1218 95.2817 12.0437C95.1515 11.9656 95.0421 11.864 94.9536 11.739C94.8702 11.614 94.8077 11.4734 94.7661 11.3171C94.7244 11.1557 94.7036 10.9916 94.7036 10.825C94.7036 10.7156 94.7114 10.6088 94.727 10.5046C94.7426 10.3953 94.7687 10.2937 94.8051 10.2C94.6437 10.4187 94.4588 10.6453 94.2504 10.8796C94.0473 11.1088 93.826 11.3197 93.5864 11.5125C93.352 11.7 93.1046 11.8536 92.8442 11.9734C92.589 12.0984 92.3286 12.1609 92.0629 12.1609C91.9275 12.1609 91.7687 12.1322 91.5864 12.075C91.4093 12.0229 91.24 11.9343 91.0786 11.8093C90.9171 11.6843 90.7817 11.5229 90.6723 11.325C90.5629 11.127 90.5083 10.8848 90.5083 10.5984C90.5083 10.3848 90.5395 10.1296 90.602 9.83276C90.6697 9.53589 90.7687 9.2286 90.8989 8.91089C91.0343 8.58797 91.2036 8.27026 91.4067 7.95776C91.615 7.64526 91.8598 7.36662 92.1411 7.12183C92.4223 6.87183 92.7426 6.67131 93.102 6.52026C93.4614 6.36401 93.8624 6.28589 94.3051 6.28589C94.5343 6.28589 94.7348 6.31453 94.9067 6.37183C95.0786 6.42912 95.2244 6.49162 95.3442 6.55933C95.4796 6.64266 95.5994 6.73381 95.7036 6.83276C95.7921 6.78589 95.8833 6.74162 95.977 6.69995C96.0551 6.66349 96.1359 6.63224 96.2192 6.6062C96.3077 6.57495 96.3833 6.55933 96.4458 6.55933C96.6437 6.55933 96.8051 6.61401 96.9301 6.72339C97.0551 6.83276 97.1176 6.95256 97.1176 7.08276C97.1176 7.11922 97.115 7.14787 97.1098 7.1687C97.0838 7.26766 97.0421 7.39266 96.9848 7.5437C96.9327 7.69474 96.8728 7.86401 96.8051 8.05151C96.7374 8.23381 96.6671 8.42651 96.5942 8.62964C96.5265 8.82756 96.464 9.02287 96.4067 9.21558C96.3494 9.40828 96.3025 9.59058 96.2661 9.76245C96.2296 9.92912 96.2114 10.0723 96.2114 10.1921C96.2114 10.3484 96.2374 10.4786 96.2895 10.5828C96.3416 10.6817 96.4301 10.7312 96.5551 10.7312C96.6333 10.7312 96.7244 10.7078 96.8286 10.6609C96.9379 10.6088 97.0551 10.5411 97.1801 10.4578C97.3051 10.3744 97.4327 10.2807 97.5629 10.1765C97.6984 10.0671 97.8286 9.95776 97.9536 9.84839C98.2452 9.58797 98.5551 9.2911 98.8833 8.95776C98.9666 8.89006 99.0473 8.8562 99.1254 8.8562C99.2296 8.8562 99.3155 8.90828 99.3833 9.01245C99.4562 9.11141 99.4926 9.22339 99.4926 9.34839C99.4926 9.49422 99.4432 9.61662 99.3442 9.71558ZM94.6567 4.6062C94.6671 4.67391 94.6749 4.73641 94.6801 4.7937C94.6853 4.85099 94.6879 4.90568 94.6879 4.95776C94.6879 5.15047 94.6489 5.2911 94.5708 5.37964C94.4926 5.46818 94.4015 5.51245 94.2973 5.51245C94.1932 5.51245 94.0838 5.46818 93.9692 5.37964C93.8598 5.2911 93.7687 5.15828 93.6958 4.9812C93.5447 4.65308 93.3911 4.32756 93.2348 4.00464C93.0786 3.68172 92.9249 3.3562 92.7739 3.02808C92.7114 2.88745 92.6801 2.75203 92.6801 2.62183C92.6801 2.49683 92.7036 2.38224 92.7504 2.27808C92.7973 2.1687 92.8572 2.07756 92.9301 2.00464C93.0083 1.92651 93.0942 1.86662 93.1879 1.82495C93.2869 1.77808 93.3859 1.75464 93.4848 1.75464C93.6515 1.75464 93.8103 1.82235 93.9614 1.95776C94.1176 2.09318 94.2322 2.32495 94.3051 2.65308C94.3624 2.9812 94.4197 3.30672 94.477 3.62964C94.5395 3.95256 94.5994 4.27808 94.6567 4.6062ZM106.852 10.3796C106.847 10.3901 106.844 10.4031 106.844 10.4187C106.844 10.4343 106.842 10.4473 106.836 10.4578C106.836 10.5515 106.86 10.6505 106.907 10.7546C106.954 10.8536 107.029 10.9031 107.133 10.9031C107.175 10.9031 107.206 10.8979 107.227 10.8875C107.524 10.7989 107.823 10.6583 108.125 10.4656C108.433 10.2729 108.727 10.0619 109.008 9.83276C109.29 9.6036 109.547 9.36922 109.782 9.12964C110.021 8.89006 110.219 8.67651 110.375 8.48901C110.448 8.40047 110.529 8.3562 110.618 8.3562C110.696 8.3562 110.763 8.39266 110.821 8.46558C110.883 8.53849 110.915 8.63745 110.915 8.76245C110.915 8.86141 110.886 8.9786 110.829 9.11401C110.776 9.24943 110.688 9.39526 110.563 9.55151C110.256 9.89006 109.941 10.2156 109.618 10.5281C109.295 10.8406 108.969 11.1192 108.641 11.364C108.313 11.6036 107.985 11.7963 107.657 11.9421C107.334 12.088 107.016 12.1609 106.704 12.1609C106.323 12.1609 106.024 12.0541 105.805 11.8406C105.586 11.6218 105.477 11.2963 105.477 10.864C105.477 10.838 105.477 10.8119 105.477 10.7859C105.477 10.7546 105.48 10.726 105.485 10.7C105.365 10.9187 105.211 11.1192 105.024 11.3015C104.836 11.4786 104.631 11.6322 104.407 11.7625C104.183 11.8875 103.951 11.9838 103.711 12.0515C103.472 12.1244 103.24 12.1609 103.016 12.1609C102.823 12.1609 102.646 12.1348 102.485 12.0828C102.323 12.0307 102.183 11.9473 102.063 11.8328C101.948 11.7182 101.857 11.5723 101.79 11.3953C101.727 11.2182 101.696 11.0046 101.696 10.7546C101.696 10.3171 101.763 9.90308 101.899 9.51245C102.034 9.11662 102.214 8.75464 102.438 8.42651C102.662 8.09318 102.917 7.79631 103.204 7.53589C103.495 7.27026 103.795 7.04631 104.102 6.86401C104.415 6.67651 104.724 6.53328 105.032 6.43433C105.339 6.33537 105.62 6.28589 105.875 6.28589C106.172 6.28589 106.428 6.33537 106.641 6.43433C106.745 6.48641 106.842 6.55672 106.93 6.64526C106.951 6.59839 106.972 6.55412 106.993 6.51245C107.045 6.38745 107.092 6.28068 107.133 6.19214C107.175 6.09839 107.204 6.03068 107.219 5.98901C107.235 5.94214 107.279 5.83276 107.352 5.66089C107.425 5.48901 107.508 5.28849 107.602 5.05933C107.701 4.82495 107.805 4.57495 107.915 4.30933C108.029 4.0437 108.133 3.7937 108.227 3.55933C108.321 3.32495 108.401 3.12443 108.469 2.95776C108.537 2.78589 108.579 2.67651 108.594 2.62964C108.631 2.49943 108.68 2.37443 108.743 2.25464C108.805 2.12964 108.878 2.02287 108.961 1.93433C109.05 1.84058 109.151 1.76766 109.266 1.71558C109.381 1.65828 109.511 1.62964 109.657 1.62964C109.855 1.62964 110.019 1.67391 110.149 1.76245C110.279 1.84578 110.344 2.00985 110.344 2.25464C110.344 2.3536 110.331 2.45516 110.305 2.55933C110.279 2.66349 110.248 2.76506 110.211 2.86401C110.18 2.96297 110.144 3.06193 110.102 3.16089C110.066 3.25464 110.032 3.34318 110 3.42651C109.74 3.94735 109.467 4.51506 109.18 5.12964C108.894 5.73901 108.61 6.3536 108.329 6.97339C108.047 7.59318 107.779 8.19735 107.524 8.78589C107.269 9.37443 107.045 9.90568 106.852 10.3796ZM106.618 7.32495C106.305 7.33537 105.977 7.40308 105.633 7.52808C105.237 7.66349 104.875 7.86662 104.547 8.13745C104.219 8.40308 103.941 8.7312 103.711 9.12183C103.487 9.51245 103.36 9.96037 103.329 10.4656C103.329 10.6739 103.417 10.7781 103.594 10.7781C103.813 10.7781 104.021 10.7338 104.219 10.6453C104.417 10.5515 104.605 10.4291 104.782 10.2781C104.964 10.1218 105.133 9.94474 105.29 9.74683C105.446 9.54891 105.589 9.34318 105.719 9.12964C105.855 8.9161 105.974 8.70516 106.079 8.49683C106.188 8.28328 106.282 8.08537 106.36 7.90308C106.386 7.84578 106.422 7.76506 106.469 7.66089C106.511 7.56193 106.56 7.44995 106.618 7.32495ZM112.649 7.66089C112.404 7.66089 112.167 7.72339 111.938 7.84839C111.714 7.96818 111.513 8.12964 111.336 8.33276C111.165 8.53068 111.026 8.75724 110.922 9.01245C110.818 9.26245 110.766 9.52026 110.766 9.78589C110.766 9.88485 110.774 9.99422 110.79 10.114C110.805 10.2286 110.836 10.338 110.883 10.4421C110.935 10.5411 111.008 10.6244 111.102 10.6921C111.196 10.7598 111.321 10.7937 111.477 10.7937C111.717 10.7937 111.948 10.7312 112.172 10.6062C112.401 10.476 112.605 10.3093 112.782 10.1062C112.959 9.89787 113.099 9.66349 113.204 9.40308C113.308 9.14266 113.36 8.87964 113.36 8.61401C113.36 8.50985 113.352 8.40308 113.336 8.2937C113.326 8.17912 113.295 8.07495 113.243 7.9812C113.196 7.88745 113.125 7.81193 113.032 7.75464C112.938 7.69214 112.81 7.66089 112.649 7.66089ZM113.055 6.28589C113.253 6.28589 113.464 6.31193 113.688 6.36401C113.917 6.4161 114.128 6.50464 114.321 6.62964C114.513 6.75464 114.672 6.92131 114.797 7.12964C114.928 7.33276 114.993 7.58537 114.993 7.88745C114.993 8.0437 114.972 8.22339 114.93 8.42651C114.888 8.62443 114.826 8.83276 114.743 9.05151C114.795 9.11401 114.855 9.15828 114.922 9.18433C114.99 9.21037 115.063 9.22339 115.141 9.22339C115.25 9.22339 115.37 9.19214 115.5 9.12964C115.636 9.06714 115.774 8.98641 115.915 8.88745C116.055 8.78849 116.196 8.67651 116.336 8.55151C116.477 8.42651 116.61 8.30151 116.735 8.17651C116.86 8.05151 116.972 7.93433 117.071 7.82495C117.175 7.71037 117.261 7.61401 117.329 7.53589C117.365 7.49943 117.409 7.4812 117.461 7.4812C117.534 7.4812 117.599 7.52026 117.657 7.59839C117.714 7.67131 117.743 7.77547 117.743 7.91089C117.743 8.04631 117.701 8.20256 117.618 8.37964C117.54 8.55672 117.391 8.74162 117.172 8.93433C117.047 9.06974 116.904 9.22599 116.743 9.40308C116.581 9.58016 116.409 9.74683 116.227 9.90308C116.045 10.0593 115.855 10.1921 115.657 10.3015C115.459 10.4109 115.261 10.4656 115.063 10.4656C114.928 10.4656 114.795 10.4447 114.665 10.4031C114.54 10.3614 114.412 10.2937 114.282 10.2C114.094 10.4916 113.881 10.7572 113.641 10.9968C113.401 11.2364 113.133 11.4421 112.836 11.614C112.545 11.7859 112.227 11.9187 111.883 12.0125C111.545 12.1114 111.183 12.1609 110.797 12.1609C110.651 12.1609 110.482 12.1322 110.29 12.075C110.097 12.0177 109.912 11.9239 109.735 11.7937C109.563 11.6583 109.417 11.4838 109.297 11.2703C109.178 11.0567 109.118 10.7963 109.118 10.489C109.118 10.2807 109.151 10.0307 109.219 9.73901C109.287 9.44735 109.388 9.14787 109.524 8.84058C109.665 8.52808 109.839 8.22078 110.047 7.9187C110.261 7.61141 110.513 7.33797 110.805 7.09839C111.097 6.8536 111.43 6.65828 111.805 6.51245C112.18 6.36141 112.597 6.28589 113.055 6.28589ZM118.758 11.7C118.758 11.45 118.813 11.1947 118.922 10.9343C119.037 10.6739 119.18 10.4057 119.352 10.1296C119.524 9.8536 119.711 9.57495 119.915 9.2937C120.118 9.00724 120.31 8.71558 120.493 8.4187C120.545 8.33537 120.586 8.25724 120.618 8.18433C120.649 8.1062 120.665 8.02808 120.665 7.94995C120.665 7.86662 120.641 7.79891 120.594 7.74683C120.547 7.68953 120.48 7.66089 120.391 7.66089C120.178 7.66089 119.972 7.70776 119.774 7.80151C119.576 7.89006 119.386 8.00985 119.204 8.16089C119.021 8.30672 118.847 8.47599 118.68 8.6687C118.519 8.86141 118.365 9.06193 118.219 9.27026C118.079 9.47339 117.946 9.67651 117.821 9.87964C117.696 10.0828 117.581 10.2677 117.477 10.4343C117.383 10.6062 117.297 10.7937 117.219 10.9968C117.141 11.2 117.055 11.3875 116.961 11.5593C116.873 11.7312 116.771 11.8744 116.657 11.989C116.542 12.1088 116.399 12.1687 116.227 12.1687C116.04 12.1687 115.891 12.1088 115.782 11.989C115.672 11.8692 115.618 11.726 115.618 11.5593C115.618 11.4656 115.651 11.3197 115.719 11.1218C115.787 10.9239 115.873 10.6947 115.977 10.4343C116.086 10.1687 116.209 9.88745 116.344 9.59058C116.48 9.2937 116.612 8.99943 116.743 8.70776C116.878 8.4161 117.003 8.14266 117.118 7.88745C117.237 7.62703 117.336 7.40568 117.415 7.22339C117.508 6.99943 117.631 6.83276 117.782 6.72339C117.938 6.61401 118.092 6.55933 118.243 6.55933C118.373 6.55933 118.487 6.60881 118.586 6.70776C118.691 6.80151 118.743 6.93953 118.743 7.12183C118.743 7.25724 118.711 7.40568 118.649 7.56714C118.79 7.43693 118.941 7.29631 119.102 7.14526C119.263 6.99422 119.438 6.8562 119.625 6.7312C119.818 6.60099 120.032 6.49422 120.266 6.41089C120.5 6.32756 120.763 6.28589 121.055 6.28589C121.201 6.28589 121.339 6.30412 121.469 6.34058C121.599 6.37703 121.714 6.43433 121.813 6.51245C121.917 6.59058 122 6.69214 122.063 6.81714C122.131 6.94214 122.17 7.09318 122.18 7.27026C122.3 7.15047 122.43 7.03328 122.571 6.9187C122.711 6.79891 122.862 6.69214 123.024 6.59839C123.191 6.50464 123.37 6.42912 123.563 6.37183C123.756 6.31453 123.969 6.28589 124.204 6.28589C124.375 6.28589 124.54 6.30412 124.696 6.34058C124.852 6.37703 124.99 6.43953 125.11 6.52808C125.235 6.61141 125.331 6.72078 125.399 6.8562C125.472 6.99162 125.508 7.15828 125.508 7.3562C125.508 7.6687 125.435 7.96558 125.29 8.24683C125.149 8.52808 124.982 8.78589 124.79 9.02026C124.727 9.09839 124.644 9.19735 124.54 9.31714C124.435 9.43693 124.334 9.56453 124.235 9.69995C124.136 9.83537 124.05 9.97599 123.977 10.1218C123.904 10.2625 123.868 10.3953 123.868 10.5203C123.868 10.6348 123.901 10.7078 123.969 10.739C124.042 10.7703 124.136 10.7859 124.25 10.7859C124.469 10.7859 124.706 10.7208 124.961 10.5906C125.217 10.4604 125.464 10.3041 125.704 10.1218C125.948 9.93433 126.175 9.74162 126.383 9.5437C126.597 9.34058 126.766 9.17131 126.891 9.03589C126.922 8.99943 126.959 8.97339 127 8.95776C127.042 8.94214 127.084 8.93433 127.125 8.93433C127.219 8.93433 127.303 8.97599 127.375 9.05933C127.454 9.14266 127.493 9.25203 127.493 9.38745C127.493 9.49162 127.461 9.6062 127.399 9.7312C127.336 9.8562 127.23 9.9786 127.079 10.0984C126.797 10.3692 126.508 10.6296 126.211 10.8796C125.92 11.1244 125.623 11.3432 125.321 11.5359C125.024 11.7234 124.724 11.8744 124.422 11.989C124.125 12.1036 123.829 12.1609 123.532 12.1609C123.146 12.1609 122.834 12.0697 122.594 11.8875C122.36 11.7052 122.243 11.4161 122.243 11.0203C122.243 10.7598 122.292 10.5151 122.391 10.2859C122.49 10.0567 122.612 9.83797 122.758 9.62964C122.904 9.4161 123.058 9.21037 123.219 9.01245C123.381 8.81453 123.521 8.61662 123.641 8.4187C123.693 8.33537 123.735 8.25724 123.766 8.18433C123.797 8.1062 123.813 8.02808 123.813 7.94995C123.813 7.86662 123.79 7.79891 123.743 7.74683C123.696 7.68953 123.628 7.66089 123.54 7.66089C123.326 7.66089 123.12 7.70776 122.922 7.80151C122.724 7.89006 122.534 8.00985 122.352 8.16089C122.17 8.30672 121.995 8.47599 121.829 8.6687C121.667 8.86141 121.513 9.06193 121.368 9.27026C121.227 9.47339 121.094 9.67651 120.969 9.87964C120.844 10.0828 120.73 10.2677 120.625 10.4343C120.532 10.6062 120.446 10.7937 120.368 10.9968C120.29 11.2 120.204 11.3875 120.11 11.5593C120.021 11.7312 119.92 11.8744 119.805 11.989C119.691 12.1088 119.547 12.1687 119.375 12.1687C119.313 12.1687 119.245 12.1557 119.172 12.1296C119.099 12.1088 119.032 12.0776 118.969 12.0359C118.912 11.9942 118.862 11.9447 118.821 11.8875C118.784 11.8302 118.763 11.7677 118.758 11.7ZM128.415 5.20776C128.415 5.08797 128.435 4.96558 128.477 4.84058C128.524 4.71037 128.592 4.59318 128.68 4.48901C128.769 4.38485 128.878 4.29891 129.008 4.2312C129.144 4.16349 129.303 4.12964 129.485 4.12964C129.787 4.12964 129.998 4.18953 130.118 4.30933C130.237 4.42391 130.297 4.56974 130.297 4.74683C130.297 4.84578 130.276 4.95516 130.235 5.07495C130.198 5.19474 130.141 5.30672 130.063 5.41089C129.985 5.50985 129.883 5.59318 129.758 5.66089C129.633 5.7286 129.485 5.76245 129.313 5.76245C128.99 5.76245 128.763 5.71297 128.633 5.61401C128.503 5.50985 128.43 5.37443 128.415 5.20776ZM127.555 6.96558C127.644 6.81974 127.745 6.71558 127.86 6.65308C127.974 6.59058 128.092 6.55933 128.211 6.55933C128.409 6.55933 128.579 6.62443 128.719 6.75464C128.865 6.87964 128.938 7.0411 128.938 7.23901C128.933 7.28589 128.925 7.33276 128.915 7.37964C128.909 7.42651 128.894 7.47339 128.868 7.52026C128.795 7.65568 128.735 7.77026 128.688 7.86401C128.641 7.95776 128.597 8.04631 128.555 8.12964C128.519 8.20776 128.482 8.28589 128.446 8.36401C128.409 8.44214 128.365 8.53589 128.313 8.64526C128.25 8.77547 128.18 8.9187 128.102 9.07495C128.024 9.22599 127.948 9.38224 127.875 9.5437C127.808 9.70516 127.748 9.86401 127.696 10.0203C127.649 10.1765 127.625 10.3197 127.625 10.45C127.625 10.5906 127.659 10.6843 127.727 10.7312C127.8 10.7729 127.901 10.7937 128.032 10.7937C128.178 10.7937 128.329 10.7625 128.485 10.7C128.646 10.6375 128.808 10.5567 128.969 10.4578C129.131 10.3588 129.29 10.2468 129.446 10.1218C129.602 9.99162 129.748 9.86141 129.883 9.7312C130.024 9.60099 130.151 9.47599 130.266 9.3562C130.386 9.23641 130.485 9.12964 130.563 9.03589C130.667 8.93693 130.771 8.88745 130.875 8.88745C130.969 8.88745 131.045 8.92912 131.102 9.01245C131.165 9.09578 131.196 9.20256 131.196 9.33276C131.196 9.45256 131.165 9.58016 131.102 9.71558C131.045 9.85099 130.948 9.9786 130.813 10.0984C130.547 10.3692 130.276 10.6296 130 10.8796C129.724 11.1244 129.441 11.3432 129.149 11.5359C128.862 11.7234 128.573 11.8744 128.282 11.989C127.99 12.1036 127.696 12.1609 127.399 12.1609C126.977 12.1609 126.644 12.0541 126.399 11.8406C126.159 11.6218 126.04 11.2833 126.04 10.825C126.04 10.5854 126.073 10.351 126.141 10.1218C126.209 9.89266 126.29 9.67131 126.383 9.45776C126.477 9.23901 126.576 9.03068 126.68 8.83276C126.784 8.62964 126.873 8.43693 126.946 8.25464C126.972 8.18693 127.016 8.08276 127.079 7.94214C127.146 7.80151 127.217 7.65828 127.29 7.51245C127.373 7.34058 127.461 7.15828 127.555 6.96558ZM134.688 7.00464C134.688 7.1661 134.67 7.34578 134.633 7.5437C134.597 7.73641 134.537 7.9187 134.454 8.09058C134.37 8.26245 134.263 8.40568 134.133 8.52026C134.003 8.63485 133.842 8.69214 133.649 8.69214C133.545 8.69214 133.477 8.67651 133.446 8.64526C133.42 8.61401 133.407 8.55933 133.407 8.4812C133.407 8.43433 133.407 8.36662 133.407 8.27808C133.412 8.18433 133.415 8.09578 133.415 8.01245C133.415 7.9187 133.401 7.84058 133.375 7.77808C133.349 7.71037 133.284 7.67651 133.18 7.67651C133.06 7.67651 132.925 7.72339 132.774 7.81714C132.628 7.90568 132.48 8.02287 132.329 8.1687C132.183 8.31453 132.04 8.4812 131.899 8.6687C131.758 8.85099 131.631 9.03849 131.516 9.2312C131.407 9.4187 131.318 9.60099 131.25 9.77808C131.188 9.95516 131.157 10.1062 131.157 10.2312C131.157 10.4135 131.219 10.5567 131.344 10.6609C131.474 10.7651 131.649 10.8171 131.868 10.8171C132.102 10.8171 132.352 10.7781 132.618 10.7C132.883 10.6218 133.146 10.5229 133.407 10.4031C133.672 10.2833 133.928 10.1531 134.172 10.0125C134.417 9.87183 134.638 9.73901 134.836 9.61401C135.04 9.48381 135.209 9.37443 135.344 9.28589C135.48 9.19214 135.568 9.13485 135.61 9.11401C135.693 9.07235 135.771 9.05151 135.844 9.05151C135.907 9.05151 135.959 9.06714 136 9.09839C136.047 9.12443 136.084 9.15828 136.11 9.19995C136.136 9.23641 136.154 9.27808 136.165 9.32495C136.175 9.36662 136.18 9.40308 136.18 9.43433C136.18 9.4812 136.175 9.53849 136.165 9.6062C136.154 9.6687 136.115 9.74162 136.047 9.82495C136.021 9.8562 135.935 9.93693 135.79 10.0671C135.649 10.1921 135.464 10.3406 135.235 10.5125C135.011 10.6843 134.75 10.8692 134.454 11.0671C134.162 11.2598 133.847 11.4369 133.508 11.5984C133.175 11.7598 132.829 11.8927 132.469 11.9968C132.11 12.1062 131.756 12.1609 131.407 12.1609C131.141 12.1609 130.904 12.1192 130.696 12.0359C130.493 11.9526 130.321 11.8406 130.18 11.7C130.04 11.5541 129.933 11.3848 129.86 11.1921C129.787 10.9994 129.75 10.7963 129.75 10.5828C129.75 10.3484 129.805 10.0802 129.915 9.77808C130.024 9.47078 130.175 9.15828 130.368 8.84058C130.56 8.52287 130.787 8.21037 131.047 7.90308C131.308 7.59578 131.589 7.32235 131.891 7.08276C132.198 6.84318 132.516 6.65047 132.844 6.50464C133.178 6.35881 133.513 6.28589 133.852 6.28589C133.967 6.28589 134.073 6.29891 134.172 6.32495C134.276 6.35099 134.365 6.39266 134.438 6.44995C134.516 6.50203 134.576 6.57495 134.618 6.6687C134.665 6.76245 134.688 6.87443 134.688 7.00464ZM137.211 5.20776C137.211 5.08797 137.232 4.96558 137.274 4.84058C137.321 4.71037 137.388 4.59318 137.477 4.48901C137.566 4.38485 137.675 4.29891 137.805 4.2312C137.941 4.16349 138.099 4.12964 138.282 4.12964C138.584 4.12964 138.795 4.18953 138.915 4.30933C139.034 4.42391 139.094 4.56974 139.094 4.74683C139.094 4.84578 139.073 4.95516 139.032 5.07495C138.995 5.19474 138.938 5.30672 138.86 5.41089C138.782 5.50985 138.68 5.59318 138.555 5.66089C138.43 5.7286 138.282 5.76245 138.11 5.76245C137.787 5.76245 137.56 5.71297 137.43 5.61401C137.3 5.50985 137.227 5.37443 137.211 5.20776ZM136.352 6.96558C136.441 6.81974 136.542 6.71558 136.657 6.65308C136.771 6.59058 136.888 6.55933 137.008 6.55933C137.206 6.55933 137.375 6.62443 137.516 6.75464C137.662 6.87964 137.735 7.0411 137.735 7.23901C137.73 7.28589 137.722 7.33276 137.711 7.37964C137.706 7.42651 137.691 7.47339 137.665 7.52026C137.592 7.65568 137.532 7.77026 137.485 7.86401C137.438 7.95776 137.394 8.04631 137.352 8.12964C137.316 8.20776 137.279 8.28589 137.243 8.36401C137.206 8.44214 137.162 8.53589 137.11 8.64526C137.047 8.77547 136.977 8.9187 136.899 9.07495C136.821 9.22599 136.745 9.38224 136.672 9.5437C136.605 9.70516 136.545 9.86401 136.493 10.0203C136.446 10.1765 136.422 10.3197 136.422 10.45C136.422 10.5906 136.456 10.6843 136.524 10.7312C136.597 10.7729 136.698 10.7937 136.829 10.7937C136.974 10.7937 137.125 10.7625 137.282 10.7C137.443 10.6375 137.605 10.5567 137.766 10.4578C137.928 10.3588 138.086 10.2468 138.243 10.1218C138.399 9.99162 138.545 9.86141 138.68 9.7312C138.821 9.60099 138.948 9.47599 139.063 9.3562C139.183 9.23641 139.282 9.12964 139.36 9.03589C139.464 8.93693 139.568 8.88745 139.672 8.88745C139.766 8.88745 139.842 8.92912 139.899 9.01245C139.961 9.09578 139.993 9.20256 139.993 9.33276C139.993 9.45256 139.961 9.58016 139.899 9.71558C139.842 9.85099 139.745 9.9786 139.61 10.0984C139.344 10.3692 139.073 10.6296 138.797 10.8796C138.521 11.1244 138.237 11.3432 137.946 11.5359C137.659 11.7234 137.37 11.8744 137.079 11.989C136.787 12.1036 136.493 12.1609 136.196 12.1609C135.774 12.1609 135.441 12.0541 135.196 11.8406C134.956 11.6218 134.836 11.2833 134.836 10.825C134.836 10.5854 134.87 10.351 134.938 10.1218C135.006 9.89266 135.086 9.67131 135.18 9.45776C135.274 9.23901 135.373 9.03068 135.477 8.83276C135.581 8.62964 135.67 8.43693 135.743 8.25464C135.769 8.18693 135.813 8.08276 135.875 7.94214C135.943 7.80151 136.013 7.65828 136.086 7.51245C136.17 7.34058 136.258 7.15828 136.352 6.96558ZM140.391 9.70776C140.334 9.82756 140.276 9.96818 140.219 10.1296C140.167 10.2859 140.141 10.4265 140.141 10.5515C140.141 10.6296 140.157 10.6921 140.188 10.739C140.219 10.7859 140.279 10.8093 140.368 10.8093C140.477 10.8093 140.612 10.7781 140.774 10.7156C140.941 10.6479 141.118 10.5619 141.305 10.4578C141.498 10.3484 141.696 10.226 141.899 10.0906C142.107 9.94995 142.313 9.80672 142.516 9.66089C142.719 9.50985 142.912 9.36141 143.094 9.21558C143.282 9.06453 143.448 8.92651 143.594 8.80151C143.636 8.76506 143.685 8.73901 143.743 8.72339C143.8 8.70776 143.849 8.69995 143.891 8.69995C143.995 8.69995 144.081 8.73641 144.149 8.80933C144.217 8.88224 144.25 8.9786 144.25 9.09839C144.25 9.20776 144.214 9.33016 144.141 9.46558C144.068 9.60099 143.941 9.73381 143.758 9.86401C143.425 10.1713 143.089 10.463 142.75 10.739C142.412 11.0151 142.073 11.2598 141.735 11.4734C141.401 11.6817 141.068 11.8484 140.735 11.9734C140.407 12.0984 140.086 12.1609 139.774 12.1609C139.56 12.1609 139.381 12.1322 139.235 12.075C139.094 12.0177 138.98 11.9395 138.891 11.8406C138.808 11.7416 138.748 11.6244 138.711 11.489C138.675 11.3536 138.657 11.2104 138.657 11.0593C138.657 10.8041 138.693 10.5437 138.766 10.2781C138.844 10.0072 138.935 9.75985 139.04 9.53589C139.222 9.12964 139.407 8.72599 139.594 8.32495C139.782 7.92391 139.954 7.55672 140.11 7.22339L142.477 2.18433C142.571 1.9812 142.696 1.83797 142.852 1.75464C143.013 1.67131 143.175 1.62964 143.336 1.62964C143.498 1.62964 143.644 1.67391 143.774 1.76245C143.909 1.85099 143.977 1.99422 143.977 2.19214C143.977 2.28589 143.954 2.38485 143.907 2.48901C143.865 2.59318 143.81 2.70516 143.743 2.82495C143.612 3.06974 143.456 3.36922 143.274 3.72339C143.097 4.07756 142.904 4.46297 142.696 4.87964C142.493 5.29631 142.282 5.7312 142.063 6.18433C141.849 6.63224 141.638 7.06974 141.43 7.49683C141.227 7.92391 141.034 8.33016 140.852 8.71558C140.675 9.09578 140.521 9.42651 140.391 9.70776ZM146.43 7.3562C146.404 7.35099 146.381 7.34839 146.36 7.34839C146.339 7.34839 146.316 7.34839 146.29 7.34839C146.092 7.34839 145.907 7.38745 145.735 7.46558C145.563 7.5437 145.404 7.64787 145.258 7.77808C145.118 7.90308 144.99 8.04631 144.875 8.20776C144.766 8.36922 144.667 8.53068 144.579 8.69214C144.49 8.84839 144.415 8.99943 144.352 9.14526C144.295 9.2911 144.25 9.41349 144.219 9.51245C144.401 9.4187 144.589 9.31193 144.782 9.19214C144.98 9.07235 145.165 8.95776 145.336 8.84839C145.508 8.73901 145.657 8.64006 145.782 8.55151C145.912 8.46297 146.003 8.40308 146.055 8.37183C146.29 8.22599 146.451 8.09058 146.54 7.96558C146.628 7.83537 146.672 7.72339 146.672 7.62964C146.672 7.55151 146.646 7.48901 146.594 7.44214C146.547 7.39526 146.493 7.36662 146.43 7.3562ZM146.711 6.27808C147.144 6.27808 147.467 6.38224 147.68 6.59058C147.894 6.79891 148 7.08797 148 7.45776C148 7.67651 147.943 7.90568 147.829 8.14526C147.714 8.38485 147.516 8.62964 147.235 8.87964C146.954 9.12443 146.576 9.37703 146.102 9.63745C145.633 9.89266 145.045 10.1505 144.336 10.4109C144.362 10.5619 144.443 10.6817 144.579 10.7703C144.714 10.8536 144.894 10.8953 145.118 10.8953C145.357 10.8953 145.612 10.8614 145.883 10.7937C146.159 10.7208 146.43 10.6296 146.696 10.5203C146.967 10.4109 147.23 10.2937 147.485 10.1687C147.74 10.0385 147.969 9.9161 148.172 9.80151C148.381 9.68693 148.553 9.58797 148.688 9.50464C148.829 9.42131 148.922 9.36922 148.969 9.34839C149.016 9.31714 149.058 9.29891 149.094 9.2937C149.136 9.28849 149.172 9.28589 149.204 9.28589C149.266 9.28589 149.318 9.30151 149.36 9.33276C149.401 9.35881 149.435 9.39266 149.461 9.43433C149.493 9.47078 149.513 9.51245 149.524 9.55933C149.534 9.60099 149.54 9.63745 149.54 9.6687C149.54 9.71558 149.534 9.77287 149.524 9.84058C149.513 9.90308 149.474 9.97599 149.407 10.0593C149.381 10.0854 149.292 10.1557 149.141 10.2703C148.995 10.3848 148.805 10.5203 148.571 10.6765C148.336 10.8328 148.063 10.9994 147.75 11.1765C147.443 11.3484 147.115 11.5072 146.766 11.6531C146.422 11.7989 146.063 11.9187 145.688 12.0125C145.313 12.1114 144.943 12.1609 144.579 12.1609C144.266 12.1609 143.987 12.101 143.743 11.9812C143.503 11.8614 143.297 11.7 143.125 11.4968C142.959 11.2937 142.831 11.0593 142.743 10.7937C142.654 10.5281 142.61 10.2494 142.61 9.95776C142.61 9.73381 142.654 9.48901 142.743 9.22339C142.831 8.95256 142.959 8.68172 143.125 8.41089C143.292 8.14006 143.495 7.87703 143.735 7.62183C143.98 7.36141 144.253 7.13224 144.555 6.93433C144.857 6.73641 145.188 6.57756 145.547 6.45776C145.912 6.33797 146.3 6.27808 146.711 6.27808Z" fill="white"/>
</svg>
