<svg width="80" height="80" viewBox="0 0 80 80" fill="none" xmlns="http://www.w3.org/2000/svg">
<path d="M79.5167 41.3639C79.5167 58.847 65.3856 73.0202 47.9526 73.0202C43.8075 73.0206 39.7028 72.2022 35.8731 70.6115C32.0434 69.0208 28.5636 66.6891 25.6324 63.7495C22.7011 60.8099 20.376 57.32 18.7896 53.479C17.2032 49.6381 16.3867 45.5213 16.3867 41.3639C16.3867 23.879 30.5178 9.70581 47.9491 9.70581C52.0945 9.70535 56.1993 10.5239 60.0292 12.1146C63.8592 13.7054 67.3392 16.0372 70.2706 18.977C73.2019 21.9168 75.5272 25.4069 77.1137 29.248C78.7002 33.0892 79.5167 37.2062 79.5167 41.3639Z" fill="#5DBCA3"/>
<path d="M73.4013 61.509C73.4013 61.509 68.6979 66.1882 47.949 66.1882H47.9161C27.1673 66.19 22.4639 61.509 22.4639 61.509" fill="#909C2F"/>
<path d="M47.949 63.6133C33.4178 63.6133 21.6375 61.6255 21.6375 59.1721C21.6375 56.7187 33.4178 54.7327 47.949 54.7327C62.4803 54.7327 74.2623 56.7222 74.2623 59.1756C74.2623 61.629 62.4821 63.6168 47.949 63.6168V63.6133ZM47.826 53.9734C32.581 53.9734 18.8674 55.7492 18.8674 59.5561C18.8674 62.5204 32.5793 65.1423 47.826 65.1423C63.0728 65.1423 76.9648 62.5204 76.9648 59.5561C76.9648 55.8569 63.0745 53.9734 47.826 53.9734Z" fill="#AAC840"/>
<path d="M73.8673 59.9349C73.981 59.8411 74.0746 59.7251 74.1425 59.594C74.2104 59.463 74.2511 59.3194 74.2622 59.1721C74.2622 56.7187 62.482 54.7292 47.949 54.7292C33.416 54.7292 21.6375 56.7187 21.6375 59.1721C21.6483 59.3193 21.6887 59.4628 21.7563 59.5939C21.8238 59.725 21.9172 59.841 22.0307 59.9349C24.1737 57.8499 34.9578 56.2548 47.949 56.2548C60.9402 56.2548 71.7208 57.8447 73.8673 59.9349Z" fill="#909C2F"/>
<path d="M73.8673 59.9348C71.7261 57.8497 60.9402 56.2546 47.949 56.2546C34.9579 56.2546 24.1737 57.8445 22.0308 59.9348C24.1737 62.0198 34.9579 63.6131 47.949 63.6131C60.9402 63.6131 71.7209 62.0302 73.8673 59.9348Z" fill="#9BB035"/>
<path d="M74.3438 42.6689C76.4227 30.6208 66.4268 18.8298 52.0237 16.333C37.6206 13.8361 24.2535 21.5786 22.1851 33.6268" fill="#AAC840"/>
<path d="M74.3195 42.8375C74.588 41.2737 63.13 37.9828 48.7286 35.4859C34.3273 32.9891 22.4309 32.2332 22.1607 33.797C21.8904 35.3608 33.3485 38.6517 47.7516 41.1486C62.1546 43.6454 74.0492 44.4013 74.3195 42.8375Z" fill="#909C2F"/>
<path d="M55.7933 13.6189C55.0033 12.2949 52.7737 11.9891 52.772 11.9891C52.7703 11.9891 50.5667 11.5269 49.3731 12.5104C48.4254 13.294 50.7953 13.2054 50.2393 16.4685C50.7172 16.8408 51.279 17.0896 51.8754 17.1929C52.4717 17.2962 53.0842 17.2509 53.659 17.061C54.2237 13.791 56.4308 14.6806 55.7933 13.6224" fill="white"/>
<path d="M25.6873 51.1108C25.6873 51.1616 25.7146 51.2144 25.7693 51.269C25.824 51.3198 25.908 51.3687 26.0212 51.4155C26.1384 51.4624 26.2869 51.5015 26.4666 51.5327C26.6501 51.5601 26.8689 51.5757 27.1228 51.5796C27.0056 51.5171 26.8865 51.4526 26.7654 51.3862C26.6482 51.3159 26.5349 51.2534 26.4255 51.1987C26.3162 51.1401 26.2166 51.0933 26.1267 51.0581C26.0369 51.019 25.9607 50.9995 25.8982 50.9995C25.7576 50.9995 25.6873 51.0366 25.6873 51.1108ZM30.8962 44.5894C30.9548 44.4722 31.0251 44.3687 31.1072 44.2788C31.1892 44.189 31.2771 44.1147 31.3708 44.0562C31.4646 43.9976 31.5603 43.9546 31.658 43.9272C31.7556 43.896 31.8474 43.8804 31.9333 43.8804C32.0583 43.8804 32.1638 43.9136 32.2498 43.98C32.3357 44.0425 32.3787 44.1362 32.3787 44.2612C32.3787 44.3589 32.3533 44.4644 32.3025 44.5776C32.0837 45.0464 31.8611 45.519 31.6345 45.9956C31.408 46.4683 31.1794 46.9312 30.949 47.3843C30.7224 47.8374 30.4998 48.2749 30.281 48.6968C30.0623 49.1147 29.8513 49.5034 29.6482 49.8628C29.4451 50.2222 29.2537 50.5444 29.074 50.8296C28.8982 51.1147 28.738 51.3511 28.5935 51.5386C28.9333 51.5151 29.2439 51.4839 29.5251 51.4448C29.8064 51.4058 30.0779 51.3608 30.3396 51.3101C30.6013 51.2593 30.863 51.2046 31.1248 51.146C31.3904 51.0835 31.6755 51.021 31.9802 50.9585C31.9998 50.9507 32.0212 50.9448 32.0447 50.9409C32.0681 50.937 32.0896 50.9351 32.1091 50.9351C32.2302 50.9351 32.3259 50.9839 32.3962 51.0815C32.4666 51.1753 32.5017 51.2827 32.5017 51.4038C32.5017 51.478 32.4314 51.5581 32.2908 51.644C32.1501 51.7261 31.9568 51.8081 31.7107 51.8901C31.4685 51.9722 31.1814 52.0522 30.8494 52.1304C30.5212 52.2046 30.1658 52.271 29.783 52.3296C29.4001 52.3843 28.9998 52.4272 28.5818 52.4585C28.1638 52.4937 27.7478 52.5112 27.3337 52.5112C26.8533 52.5112 26.4392 52.478 26.0916 52.4116C25.7439 52.3452 25.4568 52.2534 25.2302 52.1362C25.0076 52.019 24.8416 51.8804 24.7322 51.7202C24.6267 51.5601 24.574 51.3862 24.574 51.1987C24.574 51.0151 24.6072 50.8608 24.6736 50.7358C24.7439 50.6069 24.8376 50.5034 24.9548 50.4253C25.0759 50.3472 25.2166 50.2905 25.3767 50.2554C25.5408 50.2202 25.7166 50.2026 25.9041 50.2026C26.0564 50.2026 26.2146 50.23 26.3787 50.2847C26.5427 50.3394 26.7029 50.4116 26.8591 50.5015C27.0193 50.5874 27.1697 50.6851 27.3103 50.7944C27.4548 50.8999 27.5798 51.0073 27.6853 51.1167C27.7751 50.8823 27.8826 50.6206 28.0076 50.3315C28.1365 50.0425 28.2751 49.7397 28.4236 49.4233C28.572 49.103 28.7283 48.7769 28.8923 48.4448C29.0564 48.1089 29.2205 47.7788 29.3845 47.4546C29.5486 47.1304 29.7087 46.8179 29.865 46.5171C30.0212 46.2163 30.1658 45.9409 30.2986 45.6909C30.4314 45.4409 30.5486 45.2202 30.6501 45.0288C30.7556 44.8374 30.8376 44.6909 30.8962 44.5894ZM33.4099 47.2671C33.4099 47.1772 33.4255 47.0854 33.4568 46.9917C33.4919 46.894 33.5427 46.8062 33.6091 46.728C33.6755 46.6499 33.7576 46.5854 33.8552 46.5347C33.9568 46.4839 34.0759 46.4585 34.2126 46.4585C34.4392 46.4585 34.5974 46.5034 34.6873 46.5933C34.7771 46.6792 34.822 46.7886 34.822 46.9214C34.822 46.9956 34.8064 47.0776 34.7751 47.1675C34.7478 47.2573 34.7048 47.3413 34.6462 47.4194C34.5876 47.4937 34.5115 47.5562 34.4177 47.6069C34.324 47.6577 34.2126 47.6831 34.0837 47.6831C33.8416 47.6831 33.6716 47.646 33.574 47.5718C33.4763 47.4937 33.4216 47.3921 33.4099 47.2671ZM32.7654 48.5854C32.8318 48.4761 32.908 48.3979 32.9939 48.3511C33.0798 48.3042 33.1677 48.2808 33.2576 48.2808C33.406 48.2808 33.533 48.3296 33.6384 48.4272C33.7478 48.521 33.8025 48.6421 33.8025 48.7905C33.7986 48.8257 33.7927 48.8608 33.7849 48.896C33.781 48.9312 33.7693 48.9663 33.7498 49.0015C33.6951 49.103 33.6501 49.189 33.615 49.2593C33.5798 49.3296 33.5466 49.396 33.5154 49.4585C33.488 49.5171 33.4607 49.5757 33.4333 49.6343C33.406 49.6929 33.3728 49.7632 33.3337 49.8452C33.2869 49.9429 33.2341 50.0503 33.1755 50.1675C33.1169 50.2808 33.0603 50.3979 33.0056 50.519C32.9548 50.6401 32.9099 50.7593 32.8708 50.8765C32.8357 50.9937 32.8181 51.1011 32.8181 51.1987C32.8181 51.3042 32.8435 51.3745 32.8943 51.4097C32.949 51.4409 33.0251 51.4565 33.1228 51.4565C33.2322 51.4565 33.3455 51.4331 33.4626 51.3862C33.5837 51.3394 33.7048 51.2788 33.8259 51.2046C33.947 51.1304 34.0662 51.0464 34.1833 50.9526C34.3005 50.855 34.4099 50.7573 34.5115 50.6597C34.6169 50.562 34.7126 50.4683 34.7986 50.3784C34.8884 50.2886 34.9626 50.2085 35.0212 50.1382C35.0994 50.064 35.1775 50.0269 35.2556 50.0269C35.3259 50.0269 35.3826 50.0581 35.4255 50.1206C35.4724 50.1831 35.4958 50.2632 35.4958 50.3608C35.4958 50.4507 35.4724 50.5464 35.4255 50.6479C35.3826 50.7495 35.3103 50.8452 35.2087 50.9351C35.0095 51.1382 34.8064 51.3335 34.5994 51.521C34.3923 51.7046 34.1794 51.8687 33.9607 52.0132C33.7458 52.1538 33.5291 52.2671 33.3103 52.353C33.0916 52.439 32.8708 52.4819 32.6482 52.4819C32.3318 52.4819 32.0818 52.4019 31.8982 52.2417C31.7185 52.0776 31.6287 51.8237 31.6287 51.48C31.6287 51.3003 31.6541 51.1245 31.7048 50.9526C31.7556 50.7808 31.8162 50.6147 31.8865 50.4546C31.9568 50.2905 32.031 50.1343 32.1091 49.9858C32.1873 49.8335 32.2537 49.689 32.3083 49.5522C32.3279 49.5015 32.3611 49.4233 32.408 49.3179C32.4587 49.2124 32.5115 49.105 32.5662 48.9956C32.6287 48.8667 32.6951 48.73 32.7654 48.5854ZM39.8787 51.0229C39.5857 51.2456 39.2927 51.4214 38.9998 51.5503C38.7068 51.6753 38.3826 51.7378 38.0271 51.7378C37.9099 51.7378 37.7966 51.7163 37.6873 51.6733C37.5779 51.6304 37.4353 51.5542 37.2595 51.4448C37.0017 51.7847 36.7419 52.0425 36.4802 52.2183C36.2224 52.394 35.9529 52.4819 35.6716 52.4819C35.5349 52.4819 35.4041 52.4565 35.2791 52.4058C35.1541 52.3589 35.0447 52.2866 34.9509 52.189C34.8572 52.0913 34.781 51.9702 34.7224 51.8257C34.6677 51.6812 34.6404 51.5132 34.6404 51.3218C34.6404 51.0874 34.6658 50.8354 34.7166 50.5659C34.7712 50.2925 34.8357 50.0269 34.9099 49.769C34.9841 49.5112 35.0564 49.2729 35.1267 49.0542C35.2009 48.8354 35.2595 48.6616 35.3025 48.5327C35.3806 48.3687 35.4783 48.2515 35.5955 48.1812C35.7166 48.1069 35.8337 48.0698 35.947 48.0698C35.9978 48.0698 36.0486 48.0796 36.0994 48.0991C36.1541 48.1147 36.2029 48.1382 36.2458 48.1694C36.2888 48.2007 36.324 48.2378 36.3513 48.2808C36.3787 48.3237 36.3923 48.3706 36.3923 48.4214C36.3923 48.4644 36.3845 48.5015 36.3689 48.5327C36.3103 48.7202 36.24 48.9253 36.158 49.1479C36.0798 49.3667 36.0056 49.5874 35.9353 49.8101C35.865 50.0327 35.8044 50.2515 35.7537 50.4663C35.7068 50.6772 35.6833 50.8706 35.6833 51.0464C35.6833 51.0737 35.6873 51.1108 35.6951 51.1577C35.7029 51.2007 35.7126 51.2437 35.7244 51.2866C35.7361 51.3257 35.7517 51.3608 35.7712 51.3921C35.7908 51.4194 35.8123 51.4331 35.8357 51.4331C35.9373 51.4331 36.0505 51.3765 36.1755 51.2632C36.3005 51.1499 36.4373 50.9937 36.5857 50.7944C36.7146 50.6577 36.8357 50.4976 36.949 50.314C37.0662 50.1265 37.1755 49.9351 37.2771 49.7397C37.3826 49.5444 37.4822 49.353 37.5759 49.1655C37.6736 48.9741 37.7673 48.8042 37.8572 48.6558C37.9509 48.5034 38.0427 48.3823 38.1326 48.2925C38.2224 48.1987 38.3142 48.1519 38.408 48.1519C38.5681 48.1519 38.6814 48.2046 38.7478 48.3101C38.8142 48.4116 38.8474 48.5347 38.8474 48.6792C38.8474 48.8433 38.8201 48.9937 38.7654 49.1304C38.7146 49.2671 38.6443 49.4097 38.5544 49.5581C38.4646 49.7026 38.3572 49.8647 38.2322 50.0444C38.1111 50.2202 37.9783 50.4312 37.8337 50.6772C37.8962 50.7593 37.9939 50.8003 38.1267 50.8003C38.2673 50.8003 38.4119 50.7827 38.5603 50.7476C38.7126 50.7124 38.863 50.6636 39.0115 50.6011C39.1599 50.5347 39.3064 50.4565 39.4509 50.3667C39.5994 50.2729 39.7419 50.1714 39.8787 50.062C39.9373 50.0269 39.9919 50.0093 40.0427 50.0093C40.113 50.0093 40.1697 50.0405 40.2126 50.103C40.2595 50.1655 40.283 50.2456 40.283 50.3433C40.283 50.4487 40.2517 50.564 40.1892 50.689C40.1267 50.8101 40.0232 50.9214 39.8787 51.0229ZM41.9177 48.8784C41.8982 48.8745 41.8806 48.8726 41.865 48.8726C41.8494 48.8726 41.8318 48.8726 41.8123 48.8726C41.6638 48.8726 41.5251 48.9019 41.3962 48.9604C41.2673 49.019 41.1482 49.0972 41.0388 49.1948C40.9333 49.2886 40.8376 49.396 40.7517 49.5171C40.6697 49.6382 40.5955 49.7593 40.5291 49.8804C40.4626 49.9976 40.406 50.1108 40.3591 50.2202C40.3162 50.3296 40.283 50.4214 40.2595 50.4956C40.3962 50.4253 40.5369 50.3452 40.6814 50.2554C40.8298 50.1655 40.9685 50.0796 41.0974 49.9976C41.2263 49.9155 41.3376 49.8413 41.4314 49.7749C41.5291 49.7085 41.5974 49.6636 41.6365 49.6401C41.8123 49.5308 41.9333 49.4292 41.9998 49.3354C42.0662 49.2378 42.0994 49.1538 42.0994 49.0835C42.0994 49.0249 42.0798 48.978 42.0408 48.9429C42.0056 48.9077 41.9646 48.8862 41.9177 48.8784ZM42.1287 48.0698C42.4529 48.0698 42.6951 48.1479 42.8552 48.3042C43.0154 48.4604 43.0955 48.6772 43.0955 48.9546C43.0955 49.1187 43.0525 49.2905 42.9666 49.4702C42.8806 49.6499 42.7322 49.8335 42.5212 50.021C42.3103 50.2046 42.0271 50.394 41.6716 50.5894C41.3201 50.7808 40.8787 50.9741 40.3474 51.1694C40.3669 51.2827 40.4275 51.3726 40.5291 51.439C40.6306 51.5015 40.7654 51.5327 40.9333 51.5327C41.113 51.5327 41.3044 51.5073 41.5076 51.4565C41.7146 51.4019 41.9177 51.3335 42.1169 51.2515C42.3201 51.1694 42.5173 51.0815 42.7087 50.9878C42.9001 50.8901 43.072 50.7983 43.2244 50.7124C43.3806 50.6265 43.5095 50.5522 43.6111 50.4897C43.7166 50.4272 43.7869 50.3882 43.822 50.3726C43.8572 50.3491 43.8884 50.3354 43.9158 50.3315C43.947 50.3276 43.9744 50.3257 43.9978 50.3257C44.0447 50.3257 44.0837 50.3374 44.115 50.3608C44.1462 50.3804 44.1716 50.4058 44.1912 50.437C44.2146 50.4644 44.2302 50.4956 44.238 50.5308C44.2458 50.562 44.2498 50.5894 44.2498 50.6128C44.2498 50.6479 44.2458 50.6909 44.238 50.7417C44.2302 50.7886 44.2009 50.8433 44.1501 50.9058C44.1306 50.9253 44.0642 50.978 43.9509 51.064C43.8416 51.1499 43.699 51.2515 43.5232 51.3687C43.3474 51.4858 43.1423 51.6108 42.908 51.7437C42.6775 51.8726 42.4314 51.9917 42.1697 52.1011C41.9119 52.2104 41.6423 52.3003 41.3611 52.3706C41.0798 52.4448 40.8025 52.4819 40.5291 52.4819C40.2947 52.4819 40.0857 52.437 39.9021 52.3472C39.7224 52.2573 39.5681 52.1362 39.4392 51.9839C39.3142 51.8315 39.2185 51.6558 39.1521 51.4565C39.0857 51.2573 39.0525 51.0483 39.0525 50.8296C39.0525 50.6616 39.0857 50.478 39.1521 50.2788C39.2185 50.0757 39.3142 49.8726 39.4392 49.6694C39.5642 49.4663 39.7166 49.269 39.8962 49.0776C40.0798 48.8823 40.2849 48.7104 40.5115 48.562C40.738 48.4136 40.9861 48.2944 41.2556 48.2046C41.5291 48.1147 41.8201 48.0698 42.1287 48.0698ZM49.9626 48.521C49.9861 48.5249 50.0095 48.5269 50.033 48.5269C50.0603 48.5269 50.0876 48.5269 50.115 48.5269C50.4548 48.5269 50.7751 48.4546 51.0759 48.3101C51.3806 48.1616 51.6462 47.9741 51.8728 47.7476C52.0994 47.521 52.2771 47.269 52.406 46.9917C52.5388 46.7144 52.6052 46.4448 52.6052 46.1831C52.6052 45.9956 52.5701 45.8179 52.4998 45.6499C52.4333 45.4819 52.3259 45.3354 52.1775 45.2104C52.033 45.0854 51.8455 44.9858 51.615 44.9116C51.3884 44.8374 51.1169 44.8003 50.8005 44.8003C50.4451 44.8003 50.1384 44.8335 49.8806 44.8999C49.6267 44.9663 49.406 45.0522 49.2185 45.1577C49.0349 45.2632 48.8787 45.3843 48.7498 45.521C48.6248 45.6577 48.5154 45.7983 48.4216 45.9429C48.3318 46.0874 48.2498 46.228 48.1755 46.3647C48.1013 46.5015 48.0232 46.6226 47.9412 46.728C47.863 46.8335 47.7751 46.9194 47.6775 46.9858C47.5798 47.0522 47.4587 47.0854 47.3142 47.0854C47.1189 47.0854 46.9724 47.0366 46.8748 46.939C46.7771 46.8374 46.7283 46.6968 46.7283 46.5171C46.7283 46.3491 46.7732 46.1675 46.863 45.9722C46.9568 45.7769 47.0876 45.5815 47.2556 45.3862C47.4275 45.1909 47.6365 45.0034 47.8826 44.8237C48.1287 44.6401 48.4041 44.48 48.7087 44.3433C49.0173 44.2026 49.3533 44.0913 49.7166 44.0093C50.0798 43.9233 50.4646 43.8804 50.8708 43.8804C51.2693 43.8804 51.6501 43.9312 52.0134 44.0327C52.3806 44.1343 52.7048 44.2866 52.9861 44.4897C53.2673 44.689 53.49 44.9409 53.6541 45.2456C53.822 45.5503 53.906 45.9058 53.906 46.312C53.906 46.5854 53.8552 46.8472 53.7537 47.0972C53.656 47.3433 53.5232 47.5757 53.3552 47.7944C53.1873 48.0093 52.99 48.2085 52.7634 48.3921C52.5408 48.5718 52.3025 48.7319 52.0486 48.8726C51.7947 49.0132 51.533 49.1323 51.2634 49.23C50.9978 49.3276 50.74 49.3979 50.49 49.4409C50.5251 49.6245 50.5818 49.8315 50.6599 50.062C50.7419 50.2886 50.8396 50.5054 50.9529 50.7124C51.0701 50.9155 51.199 51.0894 51.3396 51.2339C51.4802 51.3784 51.6287 51.4565 51.7849 51.4683C51.8162 51.4722 51.8455 51.4741 51.8728 51.4741C51.9001 51.4741 51.9275 51.4741 51.9548 51.4741C52.24 51.4741 52.4939 51.4272 52.7166 51.3335C52.9392 51.2397 53.1248 51.1362 53.2732 51.0229C53.449 50.894 53.6013 50.7437 53.7302 50.5718C53.8513 50.4351 53.9744 50.3667 54.0994 50.3667C54.1775 50.3667 54.2439 50.394 54.2986 50.4487C54.3533 50.5034 54.3806 50.5776 54.3806 50.6714C54.3806 50.7612 54.3513 50.8667 54.2927 50.9878C54.238 51.105 54.1423 51.228 54.0056 51.3569C53.6033 51.7358 53.2087 52.0132 52.822 52.189C52.4392 52.3608 52.0759 52.4468 51.7322 52.4468C51.4509 52.4468 51.1912 52.3667 50.9529 52.2065C50.7146 52.0464 50.4978 51.8296 50.3025 51.5562C50.1072 51.2827 49.9294 50.9644 49.7693 50.6011C49.6091 50.2339 49.4666 49.8472 49.3416 49.4409C49.2712 49.6011 49.199 49.7905 49.1248 50.0093C49.0505 50.2241 48.9705 50.4468 48.8845 50.6772C48.7986 50.9077 48.7087 51.1362 48.615 51.3628C48.5212 51.5854 48.4177 51.7866 48.3044 51.9663C48.1912 52.1421 48.0701 52.2847 47.9412 52.394C47.8123 52.5034 47.6716 52.5581 47.5193 52.5581C47.3943 52.5581 47.2927 52.5386 47.2146 52.4995C47.1365 52.4604 47.0759 52.4116 47.033 52.353C46.99 52.2944 46.9587 52.23 46.9392 52.1597C46.9236 52.0894 46.9158 52.0229 46.9158 51.9604C46.9158 51.8706 46.9275 51.7788 46.9509 51.6851C46.9744 51.5913 47.0076 51.5034 47.0505 51.4214L48.7791 48.2573C48.9275 47.9917 49.0759 47.7358 49.2244 47.4897C49.3767 47.2397 49.5232 47.019 49.6638 46.8276C49.8083 46.6362 49.9431 46.4839 50.0681 46.3706C50.197 46.2534 50.3123 46.1948 50.4138 46.1948C50.4412 46.1948 50.4744 46.2007 50.5134 46.2124C50.5525 46.2202 50.5876 46.2378 50.6189 46.2651C50.6501 46.2886 50.6775 46.3257 50.7009 46.3765C50.7244 46.4233 50.7361 46.4839 50.7361 46.5581C50.7361 46.6323 50.7146 46.7358 50.6716 46.8687C50.6287 47.0015 50.572 47.1538 50.5017 47.3257C50.4314 47.4976 50.3494 47.687 50.2556 47.894C50.1619 48.0972 50.0642 48.3062 49.9626 48.521ZM56.0037 48.8784C55.9841 48.8745 55.9666 48.8726 55.9509 48.8726C55.9353 48.8726 55.9177 48.8726 55.8982 48.8726C55.7498 48.8726 55.6111 48.9019 55.4822 48.9604C55.3533 49.019 55.2341 49.0972 55.1248 49.1948C55.0193 49.2886 54.9236 49.396 54.8376 49.5171C54.7556 49.6382 54.6814 49.7593 54.615 49.8804C54.5486 49.9976 54.4919 50.1108 54.4451 50.2202C54.4021 50.3296 54.3689 50.4214 54.3455 50.4956C54.4822 50.4253 54.6228 50.3452 54.7673 50.2554C54.9158 50.1655 55.0544 50.0796 55.1833 49.9976C55.3123 49.9155 55.4236 49.8413 55.5173 49.7749C55.615 49.7085 55.6833 49.6636 55.7224 49.6401C55.8982 49.5308 56.0193 49.4292 56.0857 49.3354C56.1521 49.2378 56.1853 49.1538 56.1853 49.0835C56.1853 49.0249 56.1658 48.978 56.1267 48.9429C56.0916 48.9077 56.0505 48.8862 56.0037 48.8784ZM56.2146 48.0698C56.5388 48.0698 56.781 48.1479 56.9412 48.3042C57.1013 48.4604 57.1814 48.6772 57.1814 48.9546C57.1814 49.1187 57.1384 49.2905 57.0525 49.4702C56.9666 49.6499 56.8181 49.8335 56.6072 50.021C56.3962 50.2046 56.113 50.394 55.7576 50.5894C55.406 50.7808 54.9646 50.9741 54.4333 51.1694C54.4529 51.2827 54.5134 51.3726 54.615 51.439C54.7166 51.5015 54.8513 51.5327 55.0193 51.5327C55.199 51.5327 55.3904 51.5073 55.5935 51.4565C55.8005 51.4019 56.0037 51.3335 56.2029 51.2515C56.406 51.1694 56.6033 51.0815 56.7947 50.9878C56.9861 50.8901 57.158 50.7983 57.3103 50.7124C57.4666 50.6265 57.5955 50.5522 57.697 50.4897C57.8025 50.4272 57.8728 50.3882 57.908 50.3726C57.9431 50.3491 57.9744 50.3354 58.0017 50.3315C58.033 50.3276 58.0603 50.3257 58.0837 50.3257C58.1306 50.3257 58.1697 50.3374 58.2009 50.3608C58.2322 50.3804 58.2576 50.4058 58.2771 50.437C58.3005 50.4644 58.3162 50.4956 58.324 50.5308C58.3318 50.562 58.3357 50.5894 58.3357 50.6128C58.3357 50.6479 58.3318 50.6909 58.324 50.7417C58.3162 50.7886 58.2869 50.8433 58.2361 50.9058C58.2166 50.9253 58.1501 50.978 58.0369 51.064C57.9275 51.1499 57.7849 51.2515 57.6091 51.3687C57.4333 51.4858 57.2283 51.6108 56.9939 51.7437C56.7634 51.8726 56.5173 51.9917 56.2556 52.1011C55.9978 52.2104 55.7283 52.3003 55.447 52.3706C55.1658 52.4448 54.8884 52.4819 54.615 52.4819C54.3806 52.4819 54.1716 52.437 53.988 52.3472C53.8083 52.2573 53.6541 52.1362 53.5251 51.9839C53.4001 51.8315 53.3044 51.6558 53.238 51.4565C53.1716 51.2573 53.1384 51.0483 53.1384 50.8296C53.1384 50.6616 53.1716 50.478 53.238 50.2788C53.3044 50.0757 53.4001 49.8726 53.5251 49.6694C53.6501 49.4663 53.8025 49.269 53.9822 49.0776C54.1658 48.8823 54.3708 48.7104 54.5974 48.562C54.824 48.4136 55.072 48.2944 55.3416 48.2046C55.615 48.1147 55.906 48.0698 56.2146 48.0698ZM59.3904 49.0366C59.6287 49.1616 59.8416 49.3042 60.0291 49.4644C60.2166 49.6245 60.3748 49.7944 60.5037 49.9741C60.6365 50.1499 60.7361 50.3296 60.8025 50.5132C60.8728 50.6968 60.908 50.8765 60.908 51.0522C60.908 51.2749 60.8435 51.4761 60.7146 51.6558C60.5896 51.8315 60.4236 51.9819 60.2166 52.1069C60.0134 52.228 59.7791 52.3198 59.5134 52.3823C59.2517 52.4487 58.9861 52.4819 58.7166 52.4819C58.5134 52.4819 58.3162 52.4585 58.1248 52.4116C57.9333 52.3687 57.7576 52.3003 57.5974 52.2065C57.4412 52.1128 57.3064 51.9937 57.1931 51.8491C57.0798 51.7007 56.9998 51.5249 56.9529 51.3218C56.9451 51.2905 56.9412 51.2651 56.9412 51.2456C56.9412 51.1401 56.9783 51.0503 57.0525 50.9761C57.1267 50.8979 57.2087 50.8589 57.2986 50.8589C57.3416 50.8589 57.3884 50.8667 57.4392 50.8823C57.4939 50.8979 57.5349 50.9331 57.5623 50.9878C57.613 51.0815 57.6833 51.1655 57.7732 51.2397C57.8669 51.314 57.9705 51.3784 58.0837 51.4331C58.197 51.4839 58.3162 51.5249 58.4412 51.5562C58.5701 51.5835 58.6951 51.5972 58.8162 51.5972C58.9412 51.5972 59.0603 51.5854 59.1736 51.562C59.2908 51.5386 59.3923 51.5015 59.4783 51.4507C59.5681 51.3999 59.6384 51.3354 59.6892 51.2573C59.74 51.1792 59.7654 51.0835 59.7654 50.9702C59.7654 50.771 59.7205 50.5874 59.6306 50.4194C59.5408 50.2515 59.4236 50.0972 59.2791 49.9565C59.1384 49.812 58.9763 49.6792 58.7927 49.5581C58.613 49.4331 58.4333 49.314 58.2537 49.2007C58.2341 49.189 58.2048 49.1558 58.1658 49.1011C58.1267 49.0425 58.1072 48.9839 58.1072 48.9253C58.1072 48.8784 58.1189 48.8413 58.1423 48.814C58.2048 48.7319 58.2771 48.6479 58.3591 48.562C58.4412 48.4761 58.5291 48.3979 58.6228 48.3276C58.7166 48.2534 58.8181 48.1948 58.9275 48.1519C59.0369 48.105 59.1501 48.0815 59.2673 48.0815C59.3533 48.0815 59.4333 48.0933 59.5076 48.1167C59.5818 48.1401 59.6443 48.1714 59.6951 48.2104C59.7458 48.2456 59.7849 48.2866 59.8123 48.3335C59.8435 48.3765 59.8591 48.4175 59.8591 48.4565C59.8591 48.5112 59.8455 48.564 59.8181 48.6147C59.7908 48.6655 59.7537 48.7144 59.7068 48.7612C59.6638 48.8081 59.613 48.855 59.5544 48.9019C59.4998 48.9487 59.4451 48.9937 59.3904 49.0366ZM63.0408 49.0776C62.8962 49.3589 62.7595 49.6343 62.6306 49.9038C62.5017 50.1694 62.3806 50.4155 62.2673 50.6421C62.2205 50.7358 62.1736 50.8452 62.1267 50.9702C62.0837 51.0913 62.0623 51.1987 62.0623 51.2925C62.0623 51.3472 62.074 51.3901 62.0974 51.4214C62.1248 51.4526 62.1677 51.4683 62.2263 51.4683C62.3083 51.4683 62.4119 51.4448 62.5369 51.3979C62.6619 51.3472 62.7966 51.2827 62.9412 51.2046C63.0857 51.1226 63.238 51.0308 63.3982 50.9292C63.5583 50.8237 63.7146 50.7163 63.8669 50.6069C64.0232 50.4937 64.1716 50.3823 64.3123 50.2729C64.4529 50.1597 64.5779 50.0562 64.6873 49.9624C64.7498 49.9194 64.8083 49.8979 64.863 49.8979C64.9294 49.8979 64.9841 49.9272 65.0271 49.9858C65.0701 50.0444 65.0916 50.1187 65.0916 50.2085C65.0916 50.2983 65.0701 50.3901 65.0271 50.4839C64.9841 50.5776 64.906 50.6694 64.7927 50.7593C64.5388 50.9897 64.281 51.2085 64.0193 51.4155C63.7615 51.6226 63.5037 51.8062 63.2458 51.9663C62.9919 52.1226 62.74 52.2476 62.49 52.3413C62.24 52.4351 61.9978 52.4819 61.7634 52.4819C61.6072 52.4819 61.4763 52.4604 61.3708 52.4175C61.2654 52.3784 61.1794 52.3237 61.113 52.2534C61.0505 52.1792 61.0056 52.0952 60.9783 52.0015C60.9509 51.9038 60.9373 51.8003 60.9373 51.6909C60.9373 51.4956 60.9705 51.2925 61.0369 51.0815C61.1033 50.8706 61.1775 50.6812 61.2595 50.5132C61.3767 50.271 61.4919 50.0308 61.6052 49.7925C61.7224 49.5542 61.8357 49.3257 61.9451 49.1069H61.6931C61.4744 49.1069 61.324 49.0718 61.2419 49.0015C61.1599 48.9312 61.1189 48.8511 61.1189 48.7612C61.1189 48.7222 61.1306 48.6753 61.1541 48.6206C61.1814 48.562 61.2185 48.5093 61.2654 48.4624C61.3162 48.4116 61.3767 48.3687 61.447 48.3335C61.5173 48.2983 61.5974 48.2808 61.6873 48.2808H62.3201L63.5564 45.8257C63.6345 45.6772 63.7302 45.5718 63.8435 45.5093C63.9607 45.4429 64.0818 45.4097 64.2068 45.4097C64.324 45.4097 64.4314 45.4409 64.5291 45.5034C64.6267 45.5659 64.6755 45.6694 64.6755 45.814C64.6755 45.8882 64.658 45.9644 64.6228 46.0425C64.5916 46.1167 64.5486 46.2046 64.4939 46.3062C64.4587 46.3726 64.4158 46.4526 64.365 46.5464C64.3142 46.6362 64.2595 46.7339 64.2009 46.8394C64.1462 46.9409 64.0876 47.0483 64.0251 47.1616C63.9666 47.2749 63.908 47.3843 63.8494 47.4897C63.7166 47.7397 63.5759 48.0034 63.4275 48.2808H65.3376C65.4314 48.2808 65.5173 48.2866 65.5955 48.2983C65.6736 48.3062 65.74 48.3257 65.7947 48.3569C65.8533 48.3843 65.8982 48.4233 65.9294 48.4741C65.9607 48.5249 65.9763 48.5933 65.9763 48.6792C65.9763 48.7222 65.9685 48.7651 65.9529 48.8081C65.9412 48.8511 65.9158 48.8901 65.8767 48.9253C65.8416 48.9604 65.7908 48.9897 65.7244 49.0132C65.6619 49.0366 65.5798 49.0522 65.4783 49.0601L63.0408 49.0776ZM66.6326 49.1069C66.449 49.1069 66.2712 49.1538 66.0994 49.2476C65.9314 49.3374 65.781 49.4585 65.6482 49.6108C65.5193 49.7593 65.4158 49.9292 65.3376 50.1206C65.2595 50.3081 65.2205 50.5015 65.2205 50.7007C65.2205 50.7749 65.2263 50.8569 65.238 50.9468C65.2498 51.0327 65.2732 51.1147 65.3083 51.1929C65.3474 51.2671 65.4021 51.3296 65.4724 51.3804C65.5427 51.4312 65.6365 51.4565 65.7537 51.4565C65.9333 51.4565 66.1072 51.4097 66.2751 51.3159C66.447 51.2183 66.5994 51.0933 66.7322 50.9409C66.865 50.7847 66.9705 50.6089 67.0486 50.4136C67.1267 50.2183 67.1658 50.021 67.1658 49.8218C67.1658 49.7437 67.1599 49.6636 67.1482 49.5815C67.1404 49.4956 67.1169 49.4175 67.0779 49.3472C67.0427 49.2769 66.99 49.2202 66.9197 49.1772C66.8494 49.1304 66.7537 49.1069 66.6326 49.1069ZM66.9373 48.0757C67.0857 48.0757 67.2439 48.0952 67.4119 48.1343C67.5837 48.1733 67.7419 48.2397 67.8865 48.3335C68.031 48.4272 68.1501 48.5522 68.2439 48.7085C68.3416 48.8608 68.3904 49.0503 68.3904 49.2769C68.3904 49.394 68.3748 49.5288 68.3435 49.6812C68.3123 49.8296 68.2654 49.9858 68.2029 50.1499C68.2419 50.1968 68.2869 50.23 68.3376 50.2495C68.3884 50.269 68.4431 50.2788 68.5017 50.2788C68.5837 50.2788 68.6736 50.2554 68.7712 50.2085C68.8728 50.1616 68.9763 50.1011 69.0818 50.0269C69.1873 49.9526 69.2927 49.8687 69.3982 49.7749C69.5037 49.6812 69.6033 49.5874 69.697 49.4937C69.7908 49.3999 69.8748 49.312 69.949 49.23C70.0271 49.144 70.0916 49.0718 70.1423 49.0132C70.1697 48.9858 70.2029 48.9722 70.2419 48.9722C70.2966 48.9722 70.3455 49.0015 70.3884 49.0601C70.4314 49.1147 70.4529 49.1929 70.4529 49.2944C70.4529 49.396 70.4216 49.5132 70.3591 49.646C70.3005 49.7788 70.1892 49.9175 70.0251 50.062C69.9314 50.1636 69.824 50.2808 69.7029 50.4136C69.5818 50.5464 69.4529 50.6714 69.3162 50.7886C69.1794 50.9058 69.0369 51.0054 68.8884 51.0874C68.74 51.1694 68.5916 51.2104 68.4431 51.2104C68.3416 51.2104 68.2419 51.1948 68.1443 51.1636C68.0505 51.1323 67.9548 51.0815 67.8572 51.0112C67.7166 51.23 67.5564 51.4292 67.3767 51.6089C67.197 51.7886 66.9958 51.9429 66.7732 52.0718C66.5544 52.2007 66.3162 52.3003 66.0583 52.3706C65.8044 52.4448 65.533 52.4819 65.2439 52.4819C65.1345 52.4819 65.0076 52.4604 64.863 52.4175C64.7185 52.3745 64.5798 52.3042 64.447 52.2065C64.3181 52.105 64.2087 51.9741 64.1189 51.814C64.0291 51.6538 63.9841 51.4585 63.9841 51.228C63.9841 51.0718 64.0095 50.8843 64.0603 50.6655C64.1111 50.4468 64.1873 50.2222 64.2888 49.9917C64.3943 49.7573 64.5251 49.5269 64.6814 49.3003C64.8416 49.0698 65.031 48.8647 65.2498 48.6851C65.4685 48.5015 65.7185 48.355 65.9998 48.2456C66.281 48.1323 66.5935 48.0757 66.9373 48.0757Z" fill="white"/>
<mask id="mask0_209_3989" style="mask-type:alpha" maskUnits="userSpaceOnUse" x="24" y="29" width="16" height="29">
<path d="M37.1233 29.408C37.1978 29.4237 37.1839 29.474 37.1649 29.5227C37.0834 30.3324 36.3558 31.6477 35.7963 32.8327C35.3822 33.7119 34.8383 34.5703 34.8019 35.3522C35.3563 35.4338 35.4948 34.6815 35.7114 34.2401C36.387 32.8623 37.1493 30.8797 37.9878 29.8181C38.09 30.2733 37.8059 30.7789 37.5928 31.2707C37.1597 32.268 36.6382 33.2793 36.1428 34.3479C35.9158 34.8344 35.5676 35.2983 35.6664 35.764C36.2207 35.8474 36.3593 35.1019 36.5776 34.6502C37.2498 33.2775 38.0137 31.2741 38.8539 30.2281C38.8384 31.3871 37.5252 33.4721 36.8582 35.0724C36.6989 35.4529 36.3125 35.8717 36.6105 36.2105C37.0003 36.0976 37.0852 35.5902 37.2515 35.2601C37.9704 33.8335 38.7223 31.8875 39.6023 30.6799C39.8224 30.7981 39.6439 31.2967 39.5452 31.6182C39.4464 31.9396 39.2922 32.2784 39.1779 32.6016C38.9562 33.2306 38.705 33.9152 38.4416 34.5703C37.8821 35.9725 37.3069 37.5241 36.6244 38.6309C36.4838 38.8596 36.3188 39.0722 36.1324 39.2651C35.9262 39.458 35.5451 39.5796 35.2471 39.7151C34.9162 39.8646 34.4675 39.8889 34.2077 40.2833C33.5892 41.2198 33.2618 42.3823 32.8356 43.397C32.425 44.377 31.9383 45.3517 31.5762 46.2744C30.9092 47.9702 29.8819 49.8276 29.2375 51.4401C28.6883 52.8127 27.7372 55.1306 26.9767 56.6423C26.7619 57.0697 26.6302 57.511 26.379 57.7074C26.1521 57.8811 25.712 57.8568 25.4851 57.7665C25.1161 57.6222 24.7644 57.0436 24.7627 56.8473C24.7627 56.4616 25.227 55.8274 25.4695 55.3478C26.7723 52.7728 28.0282 50.0518 29.5372 47.3343C30.4311 45.7236 31.0963 44.0173 32.0318 42.2432C32.5966 41.166 33.1769 40.2572 33.2601 39.6369C33.3432 39.0166 32.7698 38.4207 32.7906 37.7743C32.8148 37.5352 32.8618 37.299 32.9309 37.0688C33.2774 35.9829 34.0968 34.5338 34.8695 33.1611C35.656 31.7624 36.4078 30.3446 37.1216 29.4045" fill="white"/>
</mask>
<g mask="url(#mask0_209_3989)">
<path d="M27.9147 35.3531L33.6113 28.7825C35.3994 28.4334 39.0895 27.9445 39.5452 28.7825C40.1149 29.83 42.5834 30.9251 42.5834 31.2108C42.5834 31.4393 41.2858 35.5594 40.6371 37.5909C39.4978 39.3526 37.1527 42.9806 36.8868 43.3996C36.621 43.8186 34.5924 48.3672 33.6113 50.5892L30.0509 52.3508H26.3007L23.7847 51.8747L21.3162 45.3518L27.9147 35.3531Z" fill="white"/>
</g>
<path d="M14.3078 40.252C14.3078 40.252 15.6486 27.9919 8.56837 21.8427C1.4881 15.6935 7.22057 9.10998 7.76974 7.0979C7.76974 7.0979 -1.62154 16.0428 4.07109 23.8965C9.76372 31.7502 12.8959 30.1603 14.3078 40.252Z" fill="#E5E5E7"/>
<path d="M16.1615 47.9562C16.1615 47.9562 8.41076 43.6123 7.13053 36.8741C5.85029 30.1359 0.486816 28.6694 0.486816 28.6694C0.486816 28.6694 9.62517 31.7675 10.8656 37.4284C12.106 43.0893 13.5802 45.9076 16.1615 47.9562Z" fill="#E5E5E7"/>
</svg>
