<svg width="121" height="121" viewBox="0 0 121 121" fill="none" xmlns="http://www.w3.org/2000/svg">
<g clip-path="url(#clip0_309_192)">
<path d="M120.01 62.1836C120.01 88.4083 98.8131 109.668 72.6636 109.668C66.4459 109.669 60.289 108.441 54.5444 106.055C48.7998 103.669 43.5801 100.171 39.1833 95.762C34.7865 91.3526 31.2987 86.1177 28.9191 80.3563C26.5396 74.5949 25.3148 68.4198 25.3148 62.1836C25.3148 35.9562 46.5115 14.6965 72.6584 14.6965C78.8764 14.6958 85.0337 15.9236 90.7786 18.3098C96.5235 20.6959 101.744 24.1937 106.141 28.6033C110.538 33.013 114.026 38.2481 116.405 44.0099C118.785 49.7716 120.01 55.9471 120.01 62.1836Z" fill="#5DBCA3"/>
<path d="M110.837 92.4014C110.837 92.4014 103.782 99.4202 72.6584 99.4202H72.6091C41.4858 99.4228 34.4307 92.4014 34.4307 92.4014" fill="#909C2F"/>
<path d="M72.6584 95.5575C50.8615 95.5575 33.1911 92.5759 33.1911 88.8957C33.1911 85.2156 50.8615 82.2366 72.6584 82.2366C94.4553 82.2366 112.128 85.2208 112.128 88.901C112.128 92.5811 94.4579 95.5627 72.6584 95.5627V95.5575ZM72.4739 81.0977C49.6064 81.0977 29.036 83.7613 29.036 89.4717C29.036 93.9181 49.6038 97.8511 72.4739 97.8511C95.3441 97.8511 116.182 93.9181 116.182 89.4717C116.182 83.9229 95.3467 81.0977 72.4739 81.0977Z" fill="#AAC840"/>
<path d="M111.536 90.04C111.706 89.8992 111.847 89.7253 111.949 89.5286C112.051 89.332 112.112 89.1167 112.128 88.8958C112.128 85.2157 94.458 82.2314 72.6585 82.2314C50.8589 82.2314 33.1912 85.2157 33.1912 88.8958C33.2074 89.1166 33.268 89.3318 33.3694 89.5284C33.4707 89.7251 33.6108 89.8991 33.781 90.04C36.9955 86.9124 53.1717 84.5198 72.6585 84.5198C92.1452 84.5198 108.316 86.9046 111.536 90.04Z" fill="#909C2F"/>
<path d="M111.536 90.04C108.324 86.9124 92.1452 84.5198 72.6584 84.5198C53.1716 84.5198 36.9955 86.9046 33.781 90.04C36.9955 93.1675 53.1716 95.5575 72.6584 95.5575C92.1452 95.5575 108.316 93.1832 111.536 90.04Z" fill="#9BB035"/>
<path d="M112.25 64.141C115.369 46.0688 100.375 28.3823 78.7703 24.6371C57.1657 20.8918 37.115 32.5055 34.0123 50.5777" fill="#AAC840"/>
<path d="M112.214 64.3938C112.617 62.0481 95.4298 57.1117 73.8278 53.3665C52.2258 49.6212 34.3813 48.4874 33.9759 50.8331C33.5705 53.1788 50.7576 58.1152 72.3622 61.8605C93.9668 65.6057 111.809 66.7395 112.214 64.3938Z" fill="#909C2F"/>
<path d="M84.4248 20.566C83.2398 18.58 79.8955 18.1212 79.8929 18.1212C79.8903 18.1212 76.5849 17.428 74.7945 18.9031C73.373 20.0786 76.9279 19.9457 76.0937 24.8403C76.8106 25.3988 77.6534 25.772 78.5479 25.9269C79.4424 26.0819 80.3612 26.014 81.2233 25.7291C82.0705 20.824 85.3811 22.1584 84.4248 20.5712" fill="white"/>
<path d="M39.2656 76.8037C39.2656 76.8799 39.3066 76.959 39.3887 77.041C39.4707 77.1172 39.5967 77.1904 39.7666 77.2607C39.9424 77.3311 40.165 77.3896 40.4346 77.4365C40.71 77.4775 41.0381 77.501 41.4189 77.5068C41.2432 77.4131 41.0645 77.3164 40.8828 77.2168C40.707 77.1113 40.5371 77.0176 40.373 76.9355C40.209 76.8477 40.0596 76.7773 39.9248 76.7246C39.79 76.666 39.6758 76.6367 39.582 76.6367C39.3711 76.6367 39.2656 76.6924 39.2656 76.8037ZM47.0791 67.0215C47.167 66.8457 47.2725 66.6904 47.3955 66.5557C47.5186 66.4209 47.6504 66.3096 47.791 66.2217C47.9316 66.1338 48.0752 66.0693 48.2217 66.0283C48.3682 65.9814 48.5059 65.958 48.6348 65.958C48.8223 65.958 48.9805 66.0078 49.1094 66.1074C49.2383 66.2012 49.3027 66.3418 49.3027 66.5293C49.3027 66.6758 49.2646 66.834 49.1885 67.0039C48.8604 67.707 48.5264 68.416 48.1865 69.1309C47.8467 69.8398 47.5039 70.5342 47.1582 71.2139C46.8184 71.8936 46.4844 72.5498 46.1562 73.1826C45.8281 73.8096 45.5117 74.3926 45.207 74.9316C44.9023 75.4707 44.6152 75.9541 44.3457 76.3818C44.082 76.8096 43.8418 77.1641 43.625 77.4453C44.1348 77.4102 44.6006 77.3633 45.0225 77.3047C45.4443 77.2461 45.8516 77.1787 46.2441 77.1025C46.6367 77.0264 47.0293 76.9443 47.4219 76.8564C47.8203 76.7627 48.248 76.6689 48.7051 76.5752C48.7344 76.5635 48.7666 76.5547 48.8018 76.5488C48.8369 76.543 48.8691 76.54 48.8984 76.54C49.0801 76.54 49.2236 76.6133 49.3291 76.7598C49.4346 76.9004 49.4873 77.0615 49.4873 77.2432C49.4873 77.3545 49.3818 77.4746 49.1709 77.6035C48.96 77.7266 48.6699 77.8496 48.3008 77.9727C47.9375 78.0957 47.5068 78.2158 47.0088 78.333C46.5166 78.4443 45.9834 78.5439 45.4092 78.6318C44.835 78.7139 44.2344 78.7783 43.6074 78.8252C42.9805 78.8779 42.3564 78.9043 41.7354 78.9043C41.0146 78.9043 40.3936 78.8545 39.8721 78.7549C39.3506 78.6553 38.9199 78.5176 38.5801 78.3418C38.2461 78.166 37.9971 77.958 37.833 77.7178C37.6748 77.4775 37.5957 77.2168 37.5957 76.9355C37.5957 76.6602 37.6455 76.4287 37.7451 76.2412C37.8506 76.0479 37.9912 75.8926 38.167 75.7754C38.3486 75.6582 38.5596 75.5732 38.7998 75.5205C39.0459 75.4678 39.3096 75.4414 39.5908 75.4414C39.8193 75.4414 40.0566 75.4824 40.3027 75.5645C40.5488 75.6465 40.7891 75.7549 41.0234 75.8896C41.2637 76.0186 41.4893 76.165 41.7002 76.3291C41.917 76.4873 42.1045 76.6484 42.2627 76.8125C42.3975 76.4609 42.5586 76.0684 42.7461 75.6348C42.9395 75.2012 43.1475 74.7471 43.3701 74.2725C43.5928 73.792 43.8271 73.3027 44.0732 72.8047C44.3193 72.3008 44.5654 71.8057 44.8115 71.3193C45.0576 70.833 45.2979 70.3643 45.5322 69.9131C45.7666 69.4619 45.9834 69.0488 46.1826 68.6738C46.3818 68.2988 46.5576 67.9678 46.71 67.6807C46.8682 67.3936 46.9912 67.1738 47.0791 67.0215ZM50.8496 71.0381C50.8496 70.9033 50.873 70.7656 50.9199 70.625C50.9727 70.4785 51.0488 70.3467 51.1484 70.2295C51.248 70.1123 51.3711 70.0156 51.5176 69.9395C51.6699 69.8633 51.8486 69.8252 52.0537 69.8252C52.3936 69.8252 52.6309 69.8926 52.7656 70.0273C52.9004 70.1562 52.9678 70.3203 52.9678 70.5195C52.9678 70.6309 52.9443 70.7539 52.8975 70.8887C52.8564 71.0234 52.792 71.1494 52.7041 71.2666C52.6162 71.3779 52.502 71.4717 52.3613 71.5479C52.2207 71.624 52.0537 71.6621 51.8604 71.6621C51.4971 71.6621 51.2422 71.6064 51.0957 71.4951C50.9492 71.3779 50.8672 71.2256 50.8496 71.0381ZM49.8828 73.0156C49.9824 72.8516 50.0967 72.7344 50.2256 72.6641C50.3545 72.5938 50.4863 72.5586 50.6211 72.5586C50.8438 72.5586 51.0342 72.6318 51.1924 72.7783C51.3564 72.9189 51.4385 73.1006 51.4385 73.3232C51.4326 73.376 51.4238 73.4287 51.4121 73.4814C51.4062 73.5342 51.3887 73.5869 51.3594 73.6396C51.2773 73.792 51.21 73.9209 51.1572 74.0264C51.1045 74.1318 51.0547 74.2314 51.0078 74.3252C50.9668 74.4131 50.9258 74.501 50.8848 74.5889C50.8438 74.6768 50.7939 74.7822 50.7354 74.9053C50.665 75.0518 50.5859 75.2129 50.498 75.3887C50.4102 75.5586 50.3252 75.7344 50.2432 75.916C50.167 76.0977 50.0996 76.2764 50.041 76.4521C49.9883 76.6279 49.9619 76.7891 49.9619 76.9355C49.9619 77.0938 50 77.1992 50.0762 77.252C50.1582 77.2988 50.2725 77.3223 50.4189 77.3223C50.583 77.3223 50.7529 77.2871 50.9287 77.2168C51.1104 77.1465 51.292 77.0557 51.4736 76.9443C51.6553 76.833 51.834 76.707 52.0098 76.5664C52.1855 76.4199 52.3496 76.2734 52.502 76.127C52.6602 75.9805 52.8037 75.8398 52.9326 75.7051C53.0674 75.5703 53.1787 75.4502 53.2666 75.3447C53.3838 75.2334 53.501 75.1777 53.6182 75.1777C53.7236 75.1777 53.8086 75.2246 53.873 75.3184C53.9434 75.4121 53.9785 75.5322 53.9785 75.6787C53.9785 75.8135 53.9434 75.957 53.873 76.1094C53.8086 76.2617 53.7002 76.4053 53.5479 76.54C53.249 76.8447 52.9443 77.1377 52.6338 77.4189C52.3232 77.6943 52.0039 77.9404 51.6758 78.1572C51.3535 78.3682 51.0283 78.5381 50.7002 78.667C50.3721 78.7959 50.041 78.8604 49.707 78.8604C49.2324 78.8604 48.8574 78.7402 48.582 78.5C48.3125 78.2539 48.1777 77.873 48.1777 77.3574C48.1777 77.0879 48.2158 76.8242 48.292 76.5664C48.3682 76.3086 48.459 76.0596 48.5645 75.8193C48.6699 75.5732 48.7812 75.3389 48.8984 75.1162C49.0156 74.8877 49.1152 74.6709 49.1973 74.4658C49.2266 74.3896 49.2764 74.2725 49.3467 74.1143C49.4229 73.9561 49.502 73.7949 49.584 73.6309C49.6777 73.4375 49.7773 73.2324 49.8828 73.0156ZM60.5527 76.6719C60.1133 77.0059 59.6738 77.2695 59.2344 77.4629C58.7949 77.6504 58.3086 77.7441 57.7754 77.7441C57.5996 77.7441 57.4297 77.7119 57.2656 77.6475C57.1016 77.583 56.8877 77.4688 56.624 77.3047C56.2373 77.8145 55.8477 78.2012 55.4551 78.4648C55.0684 78.7285 54.6641 78.8604 54.2422 78.8604C54.0371 78.8604 53.8408 78.8223 53.6533 78.7461C53.4658 78.6758 53.3018 78.5674 53.1611 78.4209C53.0205 78.2744 52.9062 78.0928 52.8184 77.876C52.7363 77.6592 52.6953 77.4072 52.6953 77.1201C52.6953 76.7686 52.7334 76.3906 52.8096 75.9863C52.8916 75.5762 52.9883 75.1777 53.0996 74.791C53.2109 74.4043 53.3193 74.0469 53.4248 73.7188C53.5361 73.3906 53.624 73.1299 53.6885 72.9365C53.8057 72.6904 53.9521 72.5146 54.1279 72.4092C54.3096 72.2979 54.4854 72.2422 54.6553 72.2422C54.7314 72.2422 54.8076 72.2568 54.8838 72.2861C54.9658 72.3096 55.0391 72.3447 55.1035 72.3916C55.168 72.4385 55.2207 72.4941 55.2617 72.5586C55.3027 72.623 55.3232 72.6934 55.3232 72.7695C55.3232 72.834 55.3115 72.8896 55.2881 72.9365C55.2002 73.2178 55.0947 73.5254 54.9717 73.8594C54.8545 74.1875 54.7432 74.5186 54.6377 74.8525C54.5322 75.1865 54.4414 75.5146 54.3652 75.8369C54.2949 76.1533 54.2598 76.4434 54.2598 76.707C54.2598 76.748 54.2656 76.8037 54.2773 76.874C54.2891 76.9385 54.3037 77.0029 54.3213 77.0674C54.3389 77.126 54.3623 77.1787 54.3916 77.2256C54.4209 77.2666 54.4531 77.2871 54.4883 77.2871C54.6406 77.2871 54.8105 77.2021 54.998 77.0322C55.1855 76.8623 55.3906 76.6279 55.6133 76.3291C55.8066 76.124 55.9883 75.8838 56.1582 75.6084C56.334 75.3271 56.498 75.04 56.6504 74.7471C56.8086 74.4541 56.958 74.167 57.0986 73.8857C57.2451 73.5986 57.3857 73.3438 57.5205 73.1211C57.6611 72.8926 57.7988 72.7109 57.9336 72.5762C58.0684 72.4355 58.2061 72.3652 58.3467 72.3652C58.5869 72.3652 58.7568 72.4443 58.8564 72.6025C58.9561 72.7549 59.0059 72.9395 59.0059 73.1562C59.0059 73.4023 58.9648 73.6279 58.8828 73.833C58.8066 74.0381 58.7012 74.252 58.5664 74.4746C58.4316 74.6914 58.2705 74.9346 58.083 75.2041C57.9014 75.4678 57.7021 75.7842 57.4854 76.1533C57.5791 76.2764 57.7256 76.3379 57.9248 76.3379C58.1357 76.3379 58.3525 76.3115 58.5752 76.2588C58.8037 76.2061 59.0293 76.1328 59.252 76.0391C59.4746 75.9395 59.6943 75.8223 59.9111 75.6875C60.1338 75.5469 60.3477 75.3945 60.5527 75.2305C60.6406 75.1777 60.7227 75.1514 60.7988 75.1514C60.9043 75.1514 60.9893 75.1982 61.0537 75.292C61.124 75.3857 61.1592 75.5059 61.1592 75.6523C61.1592 75.8105 61.1123 75.9834 61.0186 76.1709C60.9248 76.3525 60.7695 76.5195 60.5527 76.6719ZM63.6113 73.4551C63.582 73.4492 63.5557 73.4463 63.5322 73.4463C63.5088 73.4463 63.4824 73.4463 63.4531 73.4463C63.2305 73.4463 63.0225 73.4902 62.8291 73.5781C62.6357 73.666 62.457 73.7832 62.293 73.9297C62.1348 74.0703 61.9912 74.2314 61.8623 74.4131C61.7393 74.5947 61.6279 74.7764 61.5283 74.958C61.4287 75.1338 61.3438 75.3037 61.2734 75.4678C61.209 75.6318 61.1592 75.7695 61.124 75.8809C61.3291 75.7754 61.54 75.6553 61.7568 75.5205C61.9795 75.3857 62.1875 75.2568 62.3809 75.1338C62.5742 75.0107 62.7412 74.8994 62.8818 74.7998C63.0283 74.7002 63.1309 74.6328 63.1895 74.5977C63.4531 74.4336 63.6348 74.2812 63.7344 74.1406C63.834 73.9941 63.8838 73.8682 63.8838 73.7627C63.8838 73.6748 63.8545 73.6045 63.7959 73.5518C63.7432 73.499 63.6816 73.4668 63.6113 73.4551ZM63.9277 72.2422C64.4141 72.2422 64.7773 72.3594 65.0176 72.5938C65.2578 72.8281 65.3779 73.1533 65.3779 73.5693C65.3779 73.8154 65.3135 74.0732 65.1846 74.3428C65.0557 74.6123 64.833 74.8877 64.5166 75.1689C64.2002 75.4443 63.7754 75.7285 63.2422 76.0215C62.7148 76.3086 62.0527 76.5986 61.2559 76.8916C61.2852 77.0615 61.376 77.1963 61.5283 77.2959C61.6807 77.3896 61.8828 77.4365 62.1348 77.4365C62.4043 77.4365 62.6914 77.3984 62.9961 77.3223C63.3066 77.2402 63.6113 77.1377 63.9102 77.0146C64.2148 76.8916 64.5107 76.7598 64.7979 76.6191C65.085 76.4727 65.3428 76.335 65.5713 76.2061C65.8057 76.0771 65.999 75.9658 66.1514 75.8721C66.3096 75.7783 66.415 75.7197 66.4678 75.6963C66.5205 75.6611 66.5674 75.6406 66.6084 75.6348C66.6553 75.6289 66.6963 75.626 66.7314 75.626C66.8018 75.626 66.8604 75.6436 66.9072 75.6787C66.9541 75.708 66.9922 75.7461 67.0215 75.793C67.0566 75.834 67.0801 75.8809 67.0918 75.9336C67.1035 75.9805 67.1094 76.0215 67.1094 76.0566C67.1094 76.1094 67.1035 76.1738 67.0918 76.25C67.0801 76.3203 67.0361 76.4023 66.96 76.4961C66.9307 76.5254 66.8311 76.6045 66.6611 76.7334C66.4971 76.8623 66.2832 77.0146 66.0195 77.1904C65.7559 77.3662 65.4482 77.5537 65.0967 77.7529C64.751 77.9463 64.3818 78.125 63.9893 78.2891C63.6025 78.4531 63.1982 78.5879 62.7764 78.6934C62.3545 78.8047 61.9385 78.8604 61.5283 78.8604C61.1768 78.8604 60.8633 78.793 60.5879 78.6582C60.3184 78.5234 60.0869 78.3418 59.8936 78.1133C59.7061 77.8848 59.5625 77.6211 59.4629 77.3223C59.3633 77.0234 59.3135 76.71 59.3135 76.3818C59.3135 76.1299 59.3633 75.8545 59.4629 75.5557C59.5625 75.251 59.7061 74.9463 59.8936 74.6416C60.0811 74.3369 60.3096 74.041 60.5791 73.7539C60.8545 73.4609 61.1621 73.2031 61.502 72.9805C61.8418 72.7578 62.2139 72.5791 62.6182 72.4443C63.0283 72.3096 63.4648 72.2422 63.9277 72.2422ZM75.6787 72.9189C75.7139 72.9248 75.749 72.9277 75.7842 72.9277C75.8252 72.9277 75.8662 72.9277 75.9072 72.9277C76.417 72.9277 76.8975 72.8193 77.3486 72.6025C77.8057 72.3799 78.2041 72.0986 78.5439 71.7588C78.8838 71.4189 79.1504 71.041 79.3438 70.625C79.543 70.209 79.6426 69.8047 79.6426 69.4121C79.6426 69.1309 79.5898 68.8643 79.4844 68.6123C79.3848 68.3604 79.2236 68.1406 79.001 67.9531C78.7842 67.7656 78.5029 67.6162 78.1572 67.5049C77.8174 67.3936 77.4102 67.3379 76.9355 67.3379C76.4023 67.3379 75.9424 67.3877 75.5557 67.4873C75.1748 67.5869 74.8438 67.7158 74.5625 67.874C74.2871 68.0322 74.0527 68.2139 73.8594 68.4189C73.6719 68.624 73.5078 68.835 73.3672 69.0518C73.2324 69.2686 73.1094 69.4795 72.998 69.6846C72.8867 69.8896 72.7695 70.0713 72.6465 70.2295C72.5293 70.3877 72.3975 70.5166 72.251 70.6162C72.1045 70.7158 71.9229 70.7656 71.7061 70.7656C71.4131 70.7656 71.1934 70.6924 71.0469 70.5459C70.9004 70.3936 70.8271 70.1826 70.8271 69.9131C70.8271 69.6611 70.8945 69.3887 71.0293 69.0957C71.1699 68.8027 71.3662 68.5098 71.6182 68.2168C71.876 67.9238 72.1895 67.6426 72.5586 67.373C72.9277 67.0977 73.3408 66.8574 73.7979 66.6523C74.2607 66.4414 74.7646 66.2744 75.3096 66.1514C75.8545 66.0225 76.4316 65.958 77.041 65.958C77.6387 65.958 78.21 66.0342 78.7549 66.1865C79.3057 66.3389 79.792 66.5674 80.2139 66.8721C80.6357 67.1709 80.9697 67.5488 81.2158 68.0059C81.4678 68.4629 81.5938 68.9961 81.5938 69.6055C81.5938 70.0156 81.5176 70.4082 81.3652 70.7832C81.2188 71.1523 81.0195 71.501 80.7676 71.8291C80.5156 72.1514 80.2197 72.4502 79.8799 72.7256C79.5459 72.9951 79.1885 73.2354 78.8076 73.4463C78.4268 73.6572 78.0342 73.8359 77.6299 73.9824C77.2314 74.1289 76.8447 74.2344 76.4697 74.2988C76.5225 74.5742 76.6074 74.8848 76.7246 75.2305C76.8477 75.5703 76.9941 75.8955 77.1641 76.2061C77.3398 76.5107 77.5332 76.7715 77.7441 76.9883C77.9551 77.2051 78.1777 77.3223 78.4121 77.3398C78.459 77.3457 78.5029 77.3486 78.5439 77.3486C78.585 77.3486 78.626 77.3486 78.667 77.3486C79.0947 77.3486 79.4756 77.2783 79.8096 77.1377C80.1436 76.9971 80.4219 76.8418 80.6445 76.6719C80.9082 76.4785 81.1367 76.2529 81.3301 75.9951C81.5117 75.79 81.6963 75.6875 81.8838 75.6875C82.001 75.6875 82.1006 75.7285 82.1826 75.8105C82.2646 75.8926 82.3057 76.0039 82.3057 76.1445C82.3057 76.2793 82.2617 76.4375 82.1738 76.6191C82.0918 76.7949 81.9482 76.9795 81.7432 77.1729C81.1396 77.7412 80.5479 78.1572 79.9678 78.4209C79.3936 78.6787 78.8486 78.8076 78.333 78.8076C77.9111 78.8076 77.5215 78.6875 77.1641 78.4473C76.8066 78.207 76.4814 77.8818 76.1885 77.4717C75.8955 77.0615 75.6289 76.584 75.3887 76.0391C75.1484 75.4883 74.9346 74.9082 74.7471 74.2988C74.6416 74.5391 74.5332 74.8232 74.4219 75.1514C74.3105 75.4736 74.1904 75.8076 74.0615 76.1533C73.9326 76.499 73.7979 76.8418 73.6572 77.1816C73.5166 77.5156 73.3613 77.8174 73.1914 78.0869C73.0215 78.3506 72.8398 78.5645 72.6465 78.7285C72.4531 78.8926 72.2422 78.9746 72.0137 78.9746C71.8262 78.9746 71.6738 78.9453 71.5566 78.8867C71.4395 78.8281 71.3486 78.7549 71.2842 78.667C71.2197 78.5791 71.1729 78.4824 71.1436 78.377C71.1201 78.2715 71.1084 78.1719 71.1084 78.0781C71.1084 77.9434 71.126 77.8057 71.1611 77.665C71.1963 77.5244 71.2461 77.3926 71.3105 77.2695L73.9033 72.5234C74.126 72.125 74.3486 71.7412 74.5713 71.3721C74.7998 70.9971 75.0195 70.666 75.2305 70.3789C75.4473 70.0918 75.6494 69.8633 75.8369 69.6934C76.0303 69.5176 76.2031 69.4297 76.3555 69.4297C76.3965 69.4297 76.4463 69.4385 76.5049 69.4561C76.5635 69.4678 76.6162 69.4941 76.6631 69.5352C76.71 69.5703 76.751 69.626 76.7861 69.7021C76.8213 69.7725 76.8389 69.8633 76.8389 69.9746C76.8389 70.0859 76.8066 70.2412 76.7422 70.4404C76.6777 70.6396 76.5928 70.8682 76.4873 71.126C76.3818 71.3838 76.2588 71.668 76.1182 71.9785C75.9775 72.2832 75.8311 72.5967 75.6787 72.9189ZM84.7402 73.4551C84.7109 73.4492 84.6846 73.4463 84.6611 73.4463C84.6377 73.4463 84.6113 73.4463 84.582 73.4463C84.3594 73.4463 84.1514 73.4902 83.958 73.5781C83.7646 73.666 83.5859 73.7832 83.4219 73.9297C83.2637 74.0703 83.1201 74.2314 82.9912 74.4131C82.8682 74.5947 82.7568 74.7764 82.6572 74.958C82.5576 75.1338 82.4727 75.3037 82.4023 75.4678C82.3379 75.6318 82.2881 75.7695 82.2529 75.8809C82.458 75.7754 82.6689 75.6553 82.8857 75.5205C83.1084 75.3857 83.3164 75.2568 83.5098 75.1338C83.7031 75.0107 83.8701 74.8994 84.0107 74.7998C84.1572 74.7002 84.2598 74.6328 84.3184 74.5977C84.582 74.4336 84.7637 74.2812 84.8633 74.1406C84.9629 73.9941 85.0127 73.8682 85.0127 73.7627C85.0127 73.6748 84.9834 73.6045 84.9248 73.5518C84.8721 73.499 84.8105 73.4668 84.7402 73.4551ZM85.0566 72.2422C85.543 72.2422 85.9062 72.3594 86.1465 72.5938C86.3867 72.8281 86.5068 73.1533 86.5068 73.5693C86.5068 73.8154 86.4424 74.0732 86.3135 74.3428C86.1846 74.6123 85.9619 74.8877 85.6455 75.1689C85.3291 75.4443 84.9043 75.7285 84.3711 76.0215C83.8438 76.3086 83.1816 76.5986 82.3848 76.8916C82.4141 77.0615 82.5049 77.1963 82.6572 77.2959C82.8096 77.3896 83.0117 77.4365 83.2637 77.4365C83.5332 77.4365 83.8203 77.3984 84.125 77.3223C84.4355 77.2402 84.7402 77.1377 85.0391 77.0146C85.3438 76.8916 85.6396 76.7598 85.9268 76.6191C86.2139 76.4727 86.4717 76.335 86.7002 76.2061C86.9346 76.0771 87.1279 75.9658 87.2803 75.8721C87.4385 75.7783 87.5439 75.7197 87.5967 75.6963C87.6494 75.6611 87.6963 75.6406 87.7373 75.6348C87.7842 75.6289 87.8252 75.626 87.8604 75.626C87.9307 75.626 87.9893 75.6436 88.0361 75.6787C88.083 75.708 88.1211 75.7461 88.1504 75.793C88.1855 75.834 88.209 75.8809 88.2207 75.9336C88.2324 75.9805 88.2383 76.0215 88.2383 76.0566C88.2383 76.1094 88.2324 76.1738 88.2207 76.25C88.209 76.3203 88.165 76.4023 88.0889 76.4961C88.0596 76.5254 87.96 76.6045 87.79 76.7334C87.626 76.8623 87.4121 77.0146 87.1484 77.1904C86.8848 77.3662 86.5771 77.5537 86.2256 77.7529C85.8799 77.9463 85.5107 78.125 85.1182 78.2891C84.7314 78.4531 84.3271 78.5879 83.9053 78.6934C83.4834 78.8047 83.0674 78.8604 82.6572 78.8604C82.3057 78.8604 81.9922 78.793 81.7168 78.6582C81.4473 78.5234 81.2158 78.3418 81.0225 78.1133C80.835 77.8848 80.6914 77.6211 80.5918 77.3223C80.4922 77.0234 80.4424 76.71 80.4424 76.3818C80.4424 76.1299 80.4922 75.8545 80.5918 75.5557C80.6914 75.251 80.835 74.9463 81.0225 74.6416C81.21 74.3369 81.4385 74.041 81.708 73.7539C81.9834 73.4609 82.291 73.2031 82.6309 72.9805C82.9707 72.7578 83.3428 72.5791 83.7471 72.4443C84.1572 72.3096 84.5938 72.2422 85.0566 72.2422ZM89.8203 73.6924C90.1777 73.8799 90.4971 74.0938 90.7783 74.334C91.0596 74.5742 91.2969 74.8291 91.4902 75.0986C91.6895 75.3623 91.8389 75.6318 91.9385 75.9072C92.0439 76.1826 92.0967 76.4521 92.0967 76.7158C92.0967 77.0498 92 77.3516 91.8066 77.6211C91.6191 77.8848 91.3701 78.1104 91.0596 78.2979C90.7549 78.4795 90.4033 78.6172 90.0049 78.7109C89.6123 78.8105 89.2139 78.8604 88.8096 78.8604C88.5049 78.8604 88.209 78.8252 87.9219 78.7549C87.6348 78.6904 87.3711 78.5879 87.1309 78.4473C86.8965 78.3066 86.6943 78.1279 86.5244 77.9111C86.3545 77.6885 86.2344 77.4248 86.1641 77.1201C86.1523 77.0732 86.1465 77.0352 86.1465 77.0059C86.1465 76.8477 86.2021 76.7129 86.3135 76.6016C86.4248 76.4844 86.5479 76.4258 86.6826 76.4258C86.7471 76.4258 86.8174 76.4375 86.8936 76.4609C86.9756 76.4844 87.0371 76.5371 87.0781 76.6191C87.1543 76.7598 87.2598 76.8857 87.3945 76.9971C87.5352 77.1084 87.6904 77.2051 87.8604 77.2871C88.0303 77.3633 88.209 77.4248 88.3965 77.4717C88.5898 77.5127 88.7773 77.5332 88.959 77.5332C89.1465 77.5332 89.3252 77.5156 89.4951 77.4805C89.6709 77.4453 89.8232 77.3896 89.9521 77.3135C90.0869 77.2373 90.1924 77.1406 90.2686 77.0234C90.3447 76.9062 90.3828 76.7627 90.3828 76.5928C90.3828 76.2939 90.3154 76.0186 90.1807 75.7666C90.0459 75.5146 89.8701 75.2832 89.6533 75.0723C89.4424 74.8555 89.1992 74.6562 88.9238 74.4746C88.6543 74.2871 88.3848 74.1084 88.1152 73.9385C88.0859 73.9209 88.042 73.8711 87.9834 73.7891C87.9248 73.7012 87.8955 73.6133 87.8955 73.5254C87.8955 73.4551 87.9131 73.3994 87.9482 73.3584C88.042 73.2354 88.1504 73.1094 88.2734 72.9805C88.3965 72.8516 88.5283 72.7344 88.6689 72.6289C88.8096 72.5176 88.9619 72.4297 89.126 72.3652C89.29 72.2949 89.46 72.2598 89.6357 72.2598C89.7646 72.2598 89.8848 72.2773 89.9961 72.3125C90.1074 72.3477 90.2012 72.3945 90.2773 72.4531C90.3535 72.5059 90.4121 72.5674 90.4531 72.6377C90.5 72.7021 90.5234 72.7637 90.5234 72.8223C90.5234 72.9043 90.5029 72.9834 90.4619 73.0596C90.4209 73.1357 90.3652 73.209 90.2949 73.2793C90.2305 73.3496 90.1543 73.4199 90.0664 73.4902C89.9844 73.5605 89.9023 73.6279 89.8203 73.6924ZM95.2959 73.7539C95.0791 74.1758 94.874 74.5889 94.6807 74.9932C94.4873 75.3916 94.3057 75.7607 94.1357 76.1006C94.0654 76.2412 93.9951 76.4053 93.9248 76.5928C93.8604 76.7744 93.8281 76.9355 93.8281 77.0762C93.8281 77.1582 93.8457 77.2227 93.8809 77.2695C93.9219 77.3164 93.9863 77.3398 94.0742 77.3398C94.1973 77.3398 94.3525 77.3047 94.54 77.2344C94.7275 77.1582 94.9297 77.0615 95.1465 76.9443C95.3633 76.8213 95.5918 76.6836 95.832 76.5312C96.0723 76.373 96.3066 76.2119 96.5352 76.0479C96.7695 75.8779 96.9922 75.7109 97.2031 75.5469C97.4141 75.377 97.6016 75.2217 97.7656 75.0811C97.8594 75.0166 97.9473 74.9844 98.0293 74.9844C98.1289 74.9844 98.2109 75.0283 98.2754 75.1162C98.3398 75.2041 98.3721 75.3154 98.3721 75.4502C98.3721 75.585 98.3398 75.7227 98.2754 75.8633C98.2109 76.0039 98.0938 76.1416 97.9238 76.2764C97.543 76.6221 97.1562 76.9502 96.7637 77.2607C96.377 77.5713 95.9902 77.8467 95.6035 78.0869C95.2227 78.3213 94.8447 78.5088 94.4697 78.6494C94.0947 78.79 93.7314 78.8604 93.3799 78.8604C93.1455 78.8604 92.9492 78.8281 92.791 78.7637C92.6328 78.7051 92.5039 78.623 92.4043 78.5176C92.3105 78.4062 92.2432 78.2803 92.2021 78.1396C92.1611 77.9932 92.1406 77.8379 92.1406 77.6738C92.1406 77.3809 92.1904 77.0762 92.29 76.7598C92.3896 76.4434 92.501 76.1592 92.624 75.9072C92.7998 75.5439 92.9727 75.1836 93.1426 74.8262C93.3184 74.4688 93.4883 74.126 93.6523 73.7979H93.2744C92.9463 73.7979 92.7207 73.7451 92.5977 73.6396C92.4746 73.5342 92.4131 73.4141 92.4131 73.2793C92.4131 73.2207 92.4307 73.1504 92.4658 73.0684C92.5068 72.9805 92.5625 72.9014 92.6328 72.8311C92.709 72.7549 92.7998 72.6904 92.9053 72.6377C93.0107 72.585 93.1309 72.5586 93.2656 72.5586H94.2148L96.0693 68.876C96.1865 68.6533 96.3301 68.4951 96.5 68.4014C96.6758 68.3018 96.8574 68.252 97.0449 68.252C97.2207 68.252 97.3818 68.2988 97.5283 68.3926C97.6748 68.4863 97.748 68.6416 97.748 68.8584C97.748 68.9697 97.7217 69.084 97.6689 69.2012C97.6221 69.3125 97.5576 69.4443 97.4756 69.5967C97.4229 69.6963 97.3584 69.8164 97.2822 69.957C97.2061 70.0918 97.124 70.2383 97.0361 70.3965C96.9541 70.5488 96.8662 70.71 96.7725 70.8799C96.6846 71.0498 96.5967 71.2139 96.5088 71.3721C96.3096 71.7471 96.0986 72.1426 95.876 72.5586H98.7412C98.8818 72.5586 99.0107 72.5674 99.1279 72.585C99.2451 72.5967 99.3447 72.626 99.4268 72.6729C99.5146 72.7139 99.582 72.7725 99.6289 72.8486C99.6758 72.9248 99.6992 73.0273 99.6992 73.1562C99.6992 73.2207 99.6875 73.2852 99.6641 73.3496C99.6465 73.4141 99.6084 73.4727 99.5498 73.5254C99.4971 73.5781 99.4209 73.6221 99.3213 73.6572C99.2275 73.6924 99.1045 73.7158 98.9521 73.7275L95.2959 73.7539ZM100.684 73.7979C100.408 73.7979 100.142 73.8682 99.8838 74.0088C99.6318 74.1436 99.4062 74.3252 99.207 74.5537C99.0137 74.7764 98.8584 75.0312 98.7412 75.3184C98.624 75.5996 98.5654 75.8896 98.5654 76.1885C98.5654 76.2998 98.5742 76.4229 98.5918 76.5576C98.6094 76.6865 98.6445 76.8096 98.6973 76.9268C98.7559 77.0381 98.8379 77.1318 98.9434 77.208C99.0488 77.2842 99.1895 77.3223 99.3652 77.3223C99.6348 77.3223 99.8955 77.252 100.147 77.1113C100.405 76.9648 100.634 76.7773 100.833 76.5488C101.032 76.3145 101.19 76.0508 101.308 75.7578C101.425 75.4648 101.483 75.1689 101.483 74.8701C101.483 74.7529 101.475 74.6328 101.457 74.5098C101.445 74.3809 101.41 74.2637 101.352 74.1582C101.299 74.0527 101.22 73.9678 101.114 73.9033C101.009 73.833 100.865 73.7979 100.684 73.7979ZM101.141 72.251C101.363 72.251 101.601 72.2803 101.853 72.3389C102.11 72.3975 102.348 72.4971 102.564 72.6377C102.781 72.7783 102.96 72.9658 103.101 73.2002C103.247 73.4287 103.32 73.7129 103.32 74.0527C103.32 74.2285 103.297 74.4307 103.25 74.6592C103.203 74.8818 103.133 75.1162 103.039 75.3623C103.098 75.4326 103.165 75.4824 103.241 75.5117C103.317 75.541 103.399 75.5557 103.487 75.5557C103.61 75.5557 103.745 75.5205 103.892 75.4502C104.044 75.3799 104.199 75.2891 104.357 75.1777C104.516 75.0664 104.674 74.9404 104.832 74.7998C104.99 74.6592 105.14 74.5186 105.28 74.3779C105.421 74.2373 105.547 74.1055 105.658 73.9824C105.775 73.8535 105.872 73.7451 105.948 73.6572C105.989 73.6162 106.039 73.5957 106.098 73.5957C106.18 73.5957 106.253 73.6396 106.317 73.7275C106.382 73.8096 106.414 73.9268 106.414 74.0791C106.414 74.2314 106.367 74.4072 106.273 74.6064C106.186 74.8057 106.019 75.0137 105.772 75.2305C105.632 75.3828 105.471 75.5586 105.289 75.7578C105.107 75.957 104.914 76.1445 104.709 76.3203C104.504 76.4961 104.29 76.6455 104.067 76.7686C103.845 76.8916 103.622 76.9531 103.399 76.9531C103.247 76.9531 103.098 76.9297 102.951 76.8828C102.811 76.8359 102.667 76.7598 102.521 76.6543C102.31 76.9824 102.069 77.2812 101.8 77.5508C101.53 77.8203 101.229 78.0518 100.895 78.2451C100.566 78.4385 100.209 78.5879 99.8223 78.6934C99.4414 78.8047 99.0342 78.8604 98.6006 78.8604C98.4365 78.8604 98.2461 78.8281 98.0293 78.7637C97.8125 78.6992 97.6045 78.5938 97.4053 78.4473C97.2119 78.2949 97.0479 78.0986 96.9131 77.8584C96.7783 77.6182 96.7109 77.3252 96.7109 76.9795C96.7109 76.7451 96.749 76.4639 96.8252 76.1357C96.9014 75.8076 97.0156 75.4707 97.168 75.125C97.3262 74.7734 97.5225 74.4277 97.7568 74.0879C97.9971 73.7422 98.2812 73.4346 98.6094 73.165C98.9375 72.8896 99.3125 72.6699 99.7344 72.5059C100.156 72.3359 100.625 72.251 101.141 72.251Z" fill="white"/>
<mask id="mask0_309_192" style="mask-type:alpha" maskUnits="userSpaceOnUse" x="37" y="44" width="24" height="43">
<path d="M56.4199 44.2496C56.5317 44.2731 56.5109 44.3486 56.4823 44.4216C56.3602 45.6362 55.2687 47.6091 54.4294 49.3866C53.8083 50.7054 52.9924 51.993 52.9378 53.1658C53.7694 53.2883 53.9772 52.1598 54.3021 51.4978C55.3155 49.431 56.4589 46.4571 57.7166 44.8647C57.8699 45.5475 57.4438 46.306 57.1241 47.0436C56.4745 48.5396 55.6923 50.0565 54.9491 51.6594C54.6087 52.3891 54.0864 53.085 54.2345 53.7835C55.0661 53.9086 55.2739 52.7905 55.6014 52.1129C56.6096 50.0539 57.7556 47.0488 59.0159 45.4798C58.9925 47.2182 57.0228 50.3458 56.0223 52.7462C55.7833 53.317 55.2038 53.9451 55.6507 54.4533C56.2354 54.2839 56.3627 53.5229 56.6122 53.0277C57.6906 50.8879 58.8184 47.9688 60.1385 46.1574C60.4685 46.3347 60.2009 47.0827 60.0527 47.5648C59.9046 48.047 59.6733 48.5552 59.5018 49.04C59.1692 49.9835 58.7924 51.0104 58.3974 51.993C57.5581 54.0963 56.6954 56.4237 55.6715 58.0839C55.4606 58.4269 55.2132 58.7459 54.9335 59.0352C54.6243 59.3245 54.0526 59.507 53.6057 59.7103C53.1093 59.9344 52.4363 59.9709 52.0465 60.5625C51.1188 61.9673 50.6277 63.711 49.9884 65.233C49.3726 66.703 48.6424 68.1651 48.0993 69.5491C47.0988 72.0929 45.5578 74.879 44.5912 77.2977C43.7674 79.3567 42.3408 82.8335 41.2 85.101C40.8778 85.7421 40.6803 86.4041 40.3035 86.6987C39.9631 86.9593 39.3031 86.9228 38.9626 86.7873C38.4091 86.5709 37.8816 85.703 37.879 85.4085C37.879 84.8299 38.5754 83.8786 38.9393 83.1593C40.8934 79.2967 42.7774 75.2152 45.0407 71.139C46.3816 68.7229 47.3794 66.1635 48.7827 63.5024C49.6298 61.8865 50.5003 60.5234 50.6251 59.593C50.7498 58.6625 49.8897 57.7686 49.9209 56.799C49.9571 56.4403 50.0276 56.086 50.1313 55.7408C50.6511 54.1119 51.8802 51.9382 53.0392 49.8792C54.2189 47.7812 55.3467 45.6544 56.4173 44.2444" fill="white"/>
</mask>
<g mask="url(#mask0_309_192)">
<path d="M42.6072 53.1673L51.152 43.3115C53.8342 42.7877 59.3693 42.0545 60.0529 43.3115C60.9074 44.8827 64.6102 46.5253 64.6102 46.9538C64.6102 47.2967 62.6639 53.4768 61.6907 56.524C59.9817 59.1665 56.4641 64.6087 56.0653 65.2371C55.6666 65.8656 52.6236 72.6885 51.152 76.0214L45.8115 78.6639H40.1861L36.4121 77.9498L32.7094 68.1653L42.6072 53.1673Z" fill="white"/>
</g>
<path d="M22.1965 60.5155C22.1965 60.5155 24.2078 42.1254 13.5874 32.9016C2.96701 23.6779 11.5657 13.8025 12.3895 10.7844C12.3895 10.7844 -1.69745 24.2017 6.8415 35.9823C15.3804 47.7628 20.0787 45.378 22.1965 60.5155Z" fill="#E5E5E7"/>
<path d="M24.9771 72.072C24.9771 72.072 13.351 65.5562 11.4307 55.4489C9.5103 45.3416 1.46509 43.1418 1.46509 43.1418C1.46509 43.1418 15.1726 47.7889 17.0332 56.2803C18.8938 64.7717 21.1052 68.9991 24.9771 72.072Z" fill="#E5E5E7"/>
</g>
<defs>
<clipPath id="clip0_309_192">
<rect width="120" height="120" fill="white" transform="translate(0.734863 0.137695)"/>
</clipPath>
</defs>
</svg>
