<svg width="24" height="24" viewBox="0 0 24 24" fill="none" xmlns="http://www.w3.org/2000/svg">
<g clip-path="url(#clip0_212_890)">
<path d="M8.97832 22C9.52927 22 9.97591 21.5523 9.97591 21C9.97591 20.4477 9.52927 20 8.97832 20C8.42736 20 7.98073 20.4477 7.98073 21C7.98073 21.5523 8.42736 22 8.97832 22Z" stroke="black" stroke-width="2" stroke-linecap="round" stroke-linejoin="round"/>
<path d="M19.9518 22C20.5028 22 20.9494 21.5523 20.9494 21C20.9494 20.4477 20.5028 20 19.9518 20C19.4009 20 18.9542 20.4477 18.9542 21C18.9542 21.5523 19.4009 22 19.9518 22Z" stroke="black" stroke-width="2" stroke-linecap="round" stroke-linejoin="round"/>
<path d="M0.997589 1H4.98795L7.66149 14.39C7.75272 14.8504 8.00258 15.264 8.36733 15.5583C8.73209 15.8526 9.1885 16.009 9.65667 16H19.3533C19.8214 16.009 20.2778 15.8526 20.6426 15.5583C21.0073 15.264 21.2572 14.8504 21.3484 14.39L22.9446 6H5.98554" stroke="black" stroke-width="2" stroke-linecap="round" stroke-linejoin="round"/>
</g>
<defs>
<clipPath id="clip0_212_890">
<rect width="23.9422" height="24" fill="white"/>
</clipPath>
</defs>
</svg>
