<svg width="13" height="10" viewBox="0 0 13 10" fill="none" xmlns="http://www.w3.org/2000/svg">
<path d="M10.3981 2.0666C10.3981 1.39604 9.84897 0.847412 9.17783 0.847412H7.95703C7.62036 0.847412 7.34744 1.12034 7.34744 1.457C7.34744 1.79367 7.62036 2.0666 7.95703 2.0666H9.17783V3.68201L7.05458 6.33374H4.90692V4.28578C4.90692 3.7335 4.4592 3.28578 3.90692 3.28578H2.4664C1.11801 3.28578 0.0258789 4.37695 0.0258789 5.72415V6.55292C0.0258789 7.10521 0.473594 7.55292 1.02588 7.55292H1.24614C1.24614 8.56485 2.06371 9.3817 3.07653 9.3817C4.08935 9.3817 4.90692 8.56485 4.90692 7.55292H7.15994C7.46358 7.55292 7.75076 7.41497 7.94054 7.17795L10.1787 4.38274C10.3207 4.20537 10.3981 3.98493 10.3981 3.75771V2.0666ZM3.07653 8.16251C2.74096 8.16251 2.4664 7.8882 2.4664 7.55292H3.68666C3.68666 7.8882 3.4121 8.16251 3.07653 8.16251Z" fill="#999999"/>
<path d="M4.90692 2.0666C4.90692 1.72993 4.634 1.457 4.29733 1.457H2.46586C2.12919 1.457 1.85627 1.72993 1.85627 2.0666C1.85627 2.40326 2.12919 2.67619 2.46586 2.67619H4.29733C4.634 2.67619 4.90692 2.40326 4.90692 2.0666Z" fill="#999999"/>
<path d="M10.3981 5.72415C9.38527 5.72415 8.5677 6.541 8.5677 7.55292C8.5677 8.56485 9.38527 9.3817 10.3981 9.3817C11.4109 9.3817 12.2285 8.56485 12.2285 7.55292C12.2285 6.541 11.4109 5.72415 10.3981 5.72415ZM10.3981 8.16251C10.0625 8.16251 9.78796 7.8882 9.78796 7.55292C9.78796 7.21765 10.0625 6.94333 10.3981 6.94333C10.7337 6.94333 11.0082 7.21765 11.0082 7.55292C11.0082 7.8882 10.7337 8.16251 10.3981 8.16251Z" fill="#999999"/>
</svg>
